<svg width="37" height="38" viewBox="0 0 37 38" fill="none" xmlns="http://www.w3.org/2000/svg">
<rect x="1" y="1.92188" width="35" height="35" rx="7" stroke="#FF3131" stroke-width="2"/>
<path d="M17.494 21.1919L17.008 16.4219V12.8219H19.798V16.4219L19.33 21.1919H17.494ZM19.492 25.2059C19.192 25.5059 18.832 25.6559 18.412 25.6559C17.992 25.6559 17.632 25.5059 17.332 25.2059C17.032 24.9059 16.882 24.5459 16.882 24.1259C16.882 23.7059 17.032 23.3459 17.332 23.0459C17.632 22.7459 17.992 22.5959 18.412 22.5959C18.832 22.5959 19.192 22.7459 19.492 23.0459C19.792 23.3459 19.942 23.7059 19.942 24.1259C19.942 24.5459 19.792 24.9059 19.492 25.2059Z" fill="#FF3131"/>
</svg>
