<svg width="274" height="354" viewBox="0 0 274 354" fill="none" xmlns="http://www.w3.org/2000/svg">
<path d="M43.0128 152.951C53.9216 146.653 67.3617 146.653 78.2704 152.951C89.1791 159.25 95.8992 170.889 95.8992 183.485C95.8992 196.082 89.1791 207.721 78.2704 214.019C67.3617 220.317 53.9216 220.317 43.0128 214.019C32.1041 207.721 25.384 196.082 25.384 183.485C25.384 170.889 32.1041 159.25 43.0128 152.951Z" fill="url(#paint0_linear_7195_45435)"/>
<path d="M43.0128 152.951C53.9216 146.653 67.3617 146.653 78.2704 152.951C89.1791 159.25 95.8992 170.889 95.8992 183.485C95.8992 196.082 89.1791 207.721 78.2704 214.019C67.3617 220.317 53.9216 220.317 43.0128 214.019C32.1041 207.721 25.384 196.082 25.384 183.485C25.384 170.889 32.1041 159.25 43.0128 152.951Z" fill="white" fill-opacity="0.56"/>
<path d="M100.694 117.045C99.2328 114.488 95.9751 113.6 93.4182 115.062C90.8612 116.523 89.9733 119.781 91.435 122.338C92.8966 124.895 96.1543 125.783 98.7113 124.321C101.268 122.86 102.156 119.602 100.694 117.045Z" fill="url(#paint1_linear_7195_45435)"/>
<path d="M100.694 117.045C99.2328 114.488 95.9751 113.6 93.4182 115.062C90.8612 116.523 89.9733 119.781 91.435 122.338C92.8966 124.895 96.1543 125.783 98.7113 124.321C101.268 122.86 102.156 119.602 100.694 117.045Z" fill="white" fill-opacity="0.72"/>
<path d="M182.056 120.819C179.59 116.503 174.092 115.005 169.776 117.472L168.94 117.95C164.624 120.417 163.126 125.914 165.593 130.23L166.071 131.066C168.538 135.382 174.036 136.88 178.351 134.413L179.188 133.935C183.503 131.468 185.001 125.97 182.535 121.655L182.056 120.819Z" fill="url(#paint2_linear_7195_45435)"/>
<path d="M182.056 120.819C179.59 116.503 174.092 115.005 169.776 117.472L168.94 117.95C164.624 120.417 163.126 125.914 165.593 130.23L166.071 131.066C168.538 135.382 174.036 136.88 178.351 134.413L179.188 133.935C183.503 131.468 185.001 125.97 182.535 121.655L182.056 120.819Z" fill="white" fill-opacity="0.72"/>
<path d="M155.211 43.3068C153.73 40.7158 150.429 39.816 147.838 41.2972C145.247 42.7783 144.347 46.0793 145.828 48.6703C147.309 51.2613 150.61 52.161 153.201 50.6799C155.792 49.1988 156.692 45.8978 155.211 43.3068Z" fill="url(#paint3_linear_7195_45435)"/>
<path d="M155.211 43.3068C153.73 40.7158 150.429 39.816 147.838 41.2972C145.247 42.7783 144.347 46.0793 145.828 48.6703C147.309 51.2613 150.61 52.161 153.201 50.6799C155.792 49.1988 156.692 45.8978 155.211 43.3068Z" fill="white" fill-opacity="0.72"/>
<path d="M34.27 227.577C34.5478 225.538 36.426 224.111 38.4649 224.389C40.5038 224.667 41.9315 226.545 41.6536 228.584C41.3757 230.623 39.4976 232.05 37.4587 231.772C35.4197 231.494 33.9921 229.616 34.27 227.577Z" fill="url(#paint4_linear_7195_45435)"/>
<path d="M34.27 227.577C34.5478 225.538 36.426 224.111 38.4649 224.389C40.5038 224.667 41.9315 226.545 41.6536 228.584C41.3757 230.623 39.4976 232.05 37.4587 231.772C35.4197 231.494 33.9921 229.616 34.27 227.577Z" fill="white" fill-opacity="0.56"/>
<g filter="url(#filter0_f_7195_45435)">
<path d="M138.348 123.582C141.442 121.796 145.254 121.796 148.348 123.582L218.077 163.84C221.171 165.626 223.077 168.928 223.077 172.5V253.016C223.077 256.589 221.171 259.89 218.077 261.677L148.348 301.935C145.254 303.721 141.442 303.721 138.348 301.935L68.6193 261.677C65.5252 259.89 63.6193 256.589 63.6193 253.016V172.5C63.6193 168.928 65.5252 165.626 68.6193 163.84L138.348 123.582Z" fill="url(#paint5_linear_7195_45435)"/>
<path d="M138.348 123.582C141.442 121.796 145.254 121.796 148.348 123.582L218.077 163.84C221.171 165.626 223.077 168.928 223.077 172.5V253.016C223.077 256.589 221.171 259.89 218.077 261.677L148.348 301.935C145.254 303.721 141.442 303.721 138.348 301.935L68.6193 261.677C65.5252 259.89 63.6193 256.589 63.6193 253.016V172.5C63.6193 168.928 65.5252 165.626 68.6193 163.84L138.348 123.582Z" fill="white" fill-opacity="0.56"/>
</g>
<path d="M138.346 140.859C141.44 139.073 145.252 139.073 148.346 140.859L203.114 172.48C206.208 174.266 208.114 177.567 208.114 181.14V244.38C208.114 247.953 206.208 251.254 203.114 253.041L148.346 284.661C145.252 286.447 141.44 286.447 138.346 284.661L83.5782 253.041C80.4842 251.254 78.5782 247.953 78.5782 244.38V181.14C78.5782 177.567 80.4842 174.266 83.5782 172.48L138.346 140.859Z" fill="#9F9EEE"/>
<path d="M138.346 140.859C141.44 139.073 145.252 139.073 148.346 140.859L203.114 172.48C206.208 174.266 208.114 177.567 208.114 181.14V244.38C208.114 247.953 206.208 251.254 203.114 253.041L148.346 284.661C145.252 286.447 141.44 286.447 138.346 284.661L83.5782 253.041C80.4842 251.254 78.5782 247.953 78.5782 244.38V181.14C78.5782 177.567 80.4842 174.266 83.5782 172.48L138.346 140.859Z" fill="black" fill-opacity="0.2"/>
<path d="M138.346 140.859C141.44 139.073 145.252 139.073 148.346 140.859L203.114 172.48C206.208 174.266 208.114 177.567 208.114 181.14V244.38C208.114 247.953 206.208 251.254 203.114 253.041L148.346 284.661C145.252 286.447 141.44 286.447 138.346 284.661L83.5782 253.041C80.4842 251.254 78.5782 247.953 78.5782 244.38V181.14C78.5782 177.567 80.4842 174.266 83.5782 172.48L138.346 140.859Z" fill="white"/>
<path d="M6.14242 180.37C5.03012 179.728 3.6597 179.728 2.54739 180.37C1.43508 181.012 0.749874 182.199 0.749874 183.483C0.749874 184.768 1.43508 185.954 2.54739 186.597C3.6597 187.239 5.03012 187.239 6.14242 186.597C7.25473 185.954 7.93994 184.768 7.93994 183.483C7.93994 182.199 7.25473 181.012 6.14242 180.37Z" fill="white"/>
<path d="M134.095 111.377C139.819 108.073 146.871 108.073 152.595 111.377L226.519 154.057C232.243 157.362 235.769 163.469 235.769 170.079V255.439C235.769 262.049 232.243 268.156 226.519 271.461L152.595 314.141C146.871 317.446 139.819 317.446 134.095 314.141L60.1708 271.461C54.4468 268.156 50.9208 262.049 50.9208 255.439V170.079C50.9208 163.469 54.4468 157.362 60.1708 154.057L134.095 111.377Z" stroke="white" stroke-width="3"/>
<path d="M59.0779 82.3696C58.4557 82.0104 57.6891 82.0104 57.0669 82.3696C56.4446 82.7288 56.0613 83.3927 56.0613 84.1112C56.0613 84.8297 56.4446 85.4936 57.0669 85.8528C57.6891 86.2121 58.4557 86.2121 59.0779 85.8528C59.7001 85.4936 60.0834 84.8297 60.0834 84.1112C60.0834 83.3927 59.7001 82.7288 59.0779 82.3696Z" fill="white"/>
<path d="M39.2178 120.714C41.217 117.67 45.305 116.824 48.3485 118.823C51.392 120.822 52.2386 124.91 50.2393 127.954C48.2401 130.997 44.1521 131.844 41.1086 129.844C38.0651 127.845 37.2185 123.757 39.2178 120.714Z" fill="white"/>
<path d="M121.189 4.04144C122.155 2.5714 124.129 2.16252 125.599 3.12817C127.069 4.09383 127.478 6.06835 126.513 7.53838C125.547 9.00842 123.572 9.4173 122.102 8.45165C120.632 7.48599 120.223 5.51148 121.189 4.04144Z" fill="white"/>
<path d="M202.775 71.8197C204.136 69.7479 206.919 69.1716 208.99 70.5326C211.062 71.8936 211.639 74.6764 210.278 76.7482C208.917 78.8201 206.134 79.3963 204.062 78.0354C201.99 76.6744 201.414 73.8916 202.775 71.8197Z" fill="white"/>
<path d="M71.8865 120.272C71.2643 119.913 70.4977 119.913 69.8754 120.272C69.2532 120.631 68.8699 121.295 68.8699 122.014C68.8699 122.732 69.2532 123.396 69.8754 123.755C70.4977 124.114 71.2643 124.114 71.8865 123.755C72.5087 123.396 72.892 122.732 72.892 122.014C72.892 121.295 72.5087 120.631 71.8865 120.272Z" fill="#D38CE7"/>
<path d="M121.395 89.0581C118.582 87.4341 115.117 87.4341 112.304 89.0581C109.491 90.6822 107.758 93.6836 107.758 96.9317C107.758 100.18 109.491 103.181 112.304 104.805C115.117 106.429 118.582 106.429 121.395 104.805C124.208 103.181 125.941 100.18 125.941 96.9317C125.941 93.6836 124.208 90.6822 121.395 89.0581Z" fill="url(#paint6_linear_7195_45435)"/>
<path d="M121.395 89.0581C118.582 87.4341 115.117 87.4341 112.304 89.0581C109.491 90.6822 107.758 93.6836 107.758 96.9317C107.758 100.18 109.491 103.181 112.304 104.805C115.117 106.429 118.582 106.429 121.395 104.805C124.208 103.181 125.941 100.18 125.941 96.9317C125.941 93.6836 124.208 90.6822 121.395 89.0581Z" fill="white" fill-opacity="0.56"/>
<path d="M170.717 73.7876C169.136 72.8748 167.188 72.8748 165.607 73.7876C164.026 74.7004 163.052 76.3873 163.052 78.2129C163.052 80.0386 164.026 81.7255 165.607 82.6383C167.188 83.5511 169.136 83.5511 170.717 82.6383C172.298 81.7255 173.272 80.0386 173.272 78.2129C173.272 76.3873 172.298 74.7004 170.717 73.7876Z" fill="url(#paint7_linear_7195_45435)"/>
<path d="M170.717 73.7876C169.136 72.8748 167.188 72.8748 165.607 73.7876C164.026 74.7004 163.052 76.3873 163.052 78.2129C163.052 80.0386 164.026 81.7255 165.607 82.6383C167.188 83.5511 169.136 83.5511 170.717 82.6383C172.298 81.7255 173.272 80.0386 173.272 78.2129C173.272 76.3873 172.298 74.7004 170.717 73.7876Z" fill="white" fill-opacity="0.56"/>
<path d="M203.051 127.041C202.428 126.682 201.662 126.682 201.04 127.041C200.417 127.401 200.034 128.065 200.034 128.783C200.034 129.502 200.417 130.165 201.04 130.525C201.662 130.884 202.428 130.884 203.051 130.525C203.673 130.165 204.056 129.502 204.056 128.783C204.056 128.065 203.673 127.401 203.051 127.041Z" fill="#F49F88"/>
<path d="M139.848 156.529C142.013 155.278 144.682 155.278 146.848 156.529L190.294 181.612C192.459 182.863 193.794 185.173 193.794 187.674V237.841C193.794 240.342 192.459 242.653 190.294 243.904L146.848 268.987C144.682 270.238 142.013 270.238 139.848 268.987L96.4017 243.904C94.2359 242.653 92.9017 240.342 92.9017 237.841V187.674C92.9017 185.173 94.2359 182.863 96.4017 181.612L139.848 156.529Z" fill="#9F9EEE"/>
<path d="M139.848 156.529C142.013 155.278 144.682 155.278 146.848 156.529L190.294 181.612C192.459 182.863 193.794 185.173 193.794 187.674V237.841C193.794 240.342 192.459 242.653 190.294 243.904L146.848 268.987C144.682 270.238 142.013 270.238 139.848 268.987L96.4017 243.904C94.2359 242.653 92.9017 240.342 92.9017 237.841V187.674C92.9017 185.173 94.2359 182.863 96.4017 181.612L139.848 156.529Z" fill="black" fill-opacity="0.2"/>
<defs>
<filter id="filter0_f_7195_45435" x="13.6211" y="72.2422" width="259.457" height="281.031" filterUnits="userSpaceOnUse" color-interpolation-filters="sRGB">
<feFlood flood-opacity="0" result="BackgroundImageFix"/>
<feBlend mode="normal" in="SourceGraphic" in2="BackgroundImageFix" result="shape"/>
<feGaussianBlur stdDeviation="25" result="effect1_foregroundBlur_7195_45435"/>
</filter>
<linearGradient id="paint0_linear_7195_45435" x1="-6.94805" y1="62.98" x2="174.834" y2="157.951" gradientUnits="userSpaceOnUse">
<stop offset="0.252263" stop-color="#CB88FF"/>
<stop offset="0.630337" stop-color="#FF8AA6"/>
<stop offset="1" stop-color="#F9A279"/>
</linearGradient>
<linearGradient id="paint1_linear_7195_45435" x1="107.317" y1="109.381" x2="81.4877" y2="112.875" gradientUnits="userSpaceOnUse">
<stop stop-color="#5755FF"/>
<stop offset="1" stop-color="#FF8AA6"/>
</linearGradient>
<linearGradient id="paint2_linear_7195_45435" x1="194.071" y1="107.609" x2="148.145" y2="113.823" gradientUnits="userSpaceOnUse">
<stop stop-color="#5755FF"/>
<stop offset="1" stop-color="#FF8AA6"/>
</linearGradient>
<linearGradient id="paint3_linear_7195_45435" x1="161.922" y1="35.5403" x2="135.748" y2="39.0813" gradientUnits="userSpaceOnUse">
<stop stop-color="#5755FF"/>
<stop offset="1" stop-color="#FF8AA6"/>
</linearGradient>
<linearGradient id="paint4_linear_7195_45435" x1="21.5589" y1="220.957" x2="47.7282" y2="216.505" gradientUnits="userSpaceOnUse">
<stop offset="0.252263" stop-color="#CB88FF"/>
<stop offset="0.630337" stop-color="#FF8AA6"/>
<stop offset="1" stop-color="#F9A279"/>
</linearGradient>
<linearGradient id="paint5_linear_7195_45435" x1="43.9201" y1="55.1998" x2="336.911" y2="179.271" gradientUnits="userSpaceOnUse">
<stop stop-color="#5755FF"/>
<stop offset="1" stop-color="#FF8AA6"/>
</linearGradient>
<linearGradient id="paint6_linear_7195_45435" x1="134.278" y1="65.8578" x2="87.4035" y2="90.3474" gradientUnits="userSpaceOnUse">
<stop offset="0.252263" stop-color="#CB88FF"/>
<stop offset="0.630337" stop-color="#FF8AA6"/>
<stop offset="1" stop-color="#F9A279"/>
</linearGradient>
<linearGradient id="paint7_linear_7195_45435" x1="177.958" y1="60.7479" x2="151.612" y2="74.5123" gradientUnits="userSpaceOnUse">
<stop offset="0.252263" stop-color="#CB88FF"/>
<stop offset="0.630337" stop-color="#FF8AA6"/>
<stop offset="1" stop-color="#F9A279"/>
</linearGradient>
</defs>
</svg>
