<svg width="50" height="50" viewBox="0 0 50 50" fill="none" xmlns="http://www.w3.org/2000/svg">
<path d="M24.6855 0.351562C11.2141 0.351562 0.25 11.2732 0.25 24.7871C0.25 38.2585 11.1716 49.2227 24.6855 49.2227C38.1995 49.2227 49.1211 38.301 49.1211 24.7871C49.1211 11.3157 38.157 0.351562 24.6855 0.351562ZM42.5766 26.1045H31.23C30.4651 29.8442 26.8529 32.2665 23.1132 31.5016C19.3735 30.7366 16.9512 27.1244 17.7161 23.3847C18.481 19.645 22.0933 17.2227 25.833 17.9877C28.6802 18.5401 30.8476 20.8349 31.315 23.7247H42.5766C43.2566 23.7247 43.7665 24.2771 43.7665 24.9146C43.7665 25.5945 43.2141 26.1045 42.5766 26.1045Z" fill="#008C73"/>
</svg>
