<svg width="57" height="64" viewBox="0 0 57 64" fill="none" xmlns="http://www.w3.org/2000/svg">
<path d="M24.8643 1.86838C27.0301 0.617953 29.6985 0.617953 31.8643 1.86838L52.71 13.9036C54.8758 15.1541 56.21 17.4649 56.21 19.9658V44.0363C56.21 46.5371 54.8758 48.848 52.71 50.0985L31.8643 62.1337C29.6985 63.3841 27.0301 63.3841 24.8643 62.1337L4.01867 50.0985C1.85287 48.848 0.518673 46.5371 0.518673 44.0363V19.9658C0.518673 17.4649 1.85287 15.1541 4.01867 13.9036L24.8643 1.86838Z" fill="#9F9EEE"/>
<path d="M24.8643 1.86838C27.0301 0.617953 29.6985 0.617953 31.8643 1.86838L52.71 13.9036C54.8758 15.1541 56.21 17.4649 56.21 19.9658V44.0363C56.21 46.5371 54.8758 48.848 52.71 50.0985L31.8643 62.1337C29.6985 63.3841 27.0301 63.3841 24.8643 62.1337L4.01867 50.0985C1.85287 48.848 0.518673 46.5371 0.518673 44.0363V19.9658C0.518673 17.4649 1.85287 15.1541 4.01867 13.9036L24.8643 1.86838Z" fill="black" fill-opacity="0.2"/>
</svg>
