<svg width="418" height="380" viewBox="0 0 418 380" fill="none" xmlns="http://www.w3.org/2000/svg">
<rect x="1.5" y="89.8867" width="415" height="289" rx="21" fill="white"/>
<path d="M87.3208 292.592H92.5208V294H85.8328V282.8H92.4408V284.208H87.3208V287.648H92.0408V289.04H87.3208V292.592ZM102.813 285.792C103.709 285.792 104.435 286.085 104.989 286.672C105.544 287.248 105.821 288.032 105.821 289.024V294H104.429V289.072C104.429 288.453 104.269 287.973 103.949 287.632C103.629 287.291 103.203 287.12 102.669 287.12C102.072 287.12 101.592 287.323 101.229 287.728C100.877 288.123 100.701 288.731 100.701 289.552V294H99.3092V289.072C99.3092 288.453 99.1545 287.973 98.8452 287.632C98.5465 287.291 98.1359 287.12 97.6132 287.12C97.0265 287.12 96.5359 287.323 96.1412 287.728C95.7572 288.133 95.5652 288.741 95.5652 289.552V294H94.1732V286H95.5652V287.072C96.1092 286.219 96.9039 285.792 97.9492 285.792C99.0265 285.792 99.8105 286.245 100.301 287.152C100.856 286.245 101.693 285.792 102.813 285.792ZM112.167 285.792C113.287 285.792 114.242 286.203 115.031 287.024C115.821 287.835 116.215 288.827 116.215 290C116.215 291.173 115.821 292.171 115.031 292.992C114.242 293.803 113.287 294.208 112.167 294.208C110.845 294.208 109.837 293.68 109.143 292.624V297.2H107.751V286H109.143V287.376C109.837 286.32 110.845 285.792 112.167 285.792ZM111.991 292.864C112.791 292.864 113.463 292.592 114.007 292.048C114.551 291.493 114.823 290.811 114.823 290C114.823 289.189 114.551 288.512 114.007 287.968C113.463 287.413 112.791 287.136 111.991 287.136C111.181 287.136 110.503 287.413 109.959 287.968C109.415 288.512 109.143 289.189 109.143 290C109.143 290.811 109.415 291.493 109.959 292.048C110.503 292.592 111.181 292.864 111.991 292.864ZM124.628 292.992C123.807 293.803 122.81 294.208 121.636 294.208C120.463 294.208 119.466 293.803 118.644 292.992C117.834 292.181 117.428 291.184 117.428 290C117.428 288.816 117.834 287.819 118.644 287.008C119.466 286.197 120.463 285.792 121.636 285.792C122.81 285.792 123.807 286.197 124.628 287.008C125.45 287.819 125.86 288.816 125.86 290C125.86 291.184 125.45 292.181 124.628 292.992ZM121.636 292.848C122.436 292.848 123.108 292.576 123.652 292.032C124.196 291.488 124.468 290.811 124.468 290C124.468 289.189 124.196 288.512 123.652 287.968C123.108 287.424 122.436 287.152 121.636 287.152C120.847 287.152 120.18 287.424 119.636 287.968C119.092 288.512 118.82 289.189 118.82 290C118.82 290.811 119.092 291.488 119.636 292.032C120.18 292.576 120.847 292.848 121.636 292.848ZM136.613 286H138.069L135.589 294H134.165L132.293 288.08L130.421 294H128.997L126.517 286H127.973L129.733 292.08L131.621 286H132.965L134.853 292.096L136.613 286ZM140.165 290.64C140.303 291.355 140.629 291.909 141.141 292.304C141.663 292.699 142.303 292.896 143.061 292.896C144.117 292.896 144.885 292.507 145.365 291.728L146.549 292.4C145.77 293.605 144.597 294.208 143.029 294.208C141.759 294.208 140.725 293.813 139.925 293.024C139.135 292.224 138.741 291.216 138.741 290C138.741 288.795 139.13 287.792 139.909 286.992C140.687 286.192 141.695 285.792 142.933 285.792C144.106 285.792 145.061 286.208 145.797 287.04C146.543 287.861 146.917 288.853 146.917 290.016C146.917 290.219 146.901 290.427 146.869 290.64H140.165ZM142.933 287.104C142.186 287.104 141.567 287.317 141.077 287.744C140.586 288.16 140.282 288.72 140.165 289.424H145.509C145.391 288.667 145.093 288.091 144.613 287.696C144.133 287.301 143.573 287.104 142.933 287.104ZM149.909 287.344C150.368 286.352 151.2 285.856 152.405 285.856V287.312C151.722 287.28 151.136 287.461 150.645 287.856C150.154 288.251 149.909 288.885 149.909 289.76V294H148.517V286H149.909V287.344ZM163.351 286H164.839L161.575 294.496C161.234 295.403 160.754 296.091 160.135 296.56C159.527 297.04 158.823 297.253 158.023 297.2V295.904C159.004 295.979 159.724 295.435 160.183 294.272L160.327 293.968L156.839 286H158.327L161.047 292.272L163.351 286ZM172.441 292.992C171.619 293.803 170.622 294.208 169.449 294.208C168.275 294.208 167.278 293.803 166.457 292.992C165.646 292.181 165.241 291.184 165.241 290C165.241 288.816 165.646 287.819 166.457 287.008C167.278 286.197 168.275 285.792 169.449 285.792C170.622 285.792 171.619 286.197 172.441 287.008C173.262 287.819 173.673 288.816 173.673 290C173.673 291.184 173.262 292.181 172.441 292.992ZM169.449 292.848C170.249 292.848 170.921 292.576 171.465 292.032C172.009 291.488 172.281 290.811 172.281 290C172.281 289.189 172.009 288.512 171.465 287.968C170.921 287.424 170.249 287.152 169.449 287.152C168.659 287.152 167.993 287.424 167.449 287.968C166.905 288.512 166.633 289.189 166.633 290C166.633 290.811 166.905 291.488 167.449 292.032C167.993 292.576 168.659 292.848 169.449 292.848ZM180.834 286H182.226V294H180.834V292.848C180.268 293.755 179.404 294.208 178.242 294.208C177.303 294.208 176.551 293.915 175.986 293.328C175.42 292.731 175.138 291.925 175.138 290.912V286H176.53V290.832C176.53 291.483 176.706 291.989 177.058 292.352C177.41 292.704 177.895 292.88 178.514 292.88C179.207 292.88 179.767 292.667 180.194 292.24C180.62 291.803 180.834 291.136 180.834 290.24V286ZM185.737 287.344C186.196 286.352 187.028 285.856 188.233 285.856V287.312C187.55 287.28 186.964 287.461 186.473 287.856C185.982 288.251 185.737 288.885 185.737 289.76V294H184.345V286H185.737V287.344ZM198.107 282.8C199.632 282.8 200.896 283.344 201.899 284.432C202.912 285.509 203.419 286.832 203.419 288.4C203.419 289.968 202.912 291.296 201.899 292.384C200.896 293.461 199.632 294 198.107 294H193.739V282.8H198.107ZM198.107 292.592C199.248 292.592 200.182 292.192 200.907 291.392C201.632 290.592 201.995 289.595 201.995 288.4C201.995 287.205 201.632 286.208 200.907 285.408C200.182 284.608 199.248 284.208 198.107 284.208H195.227V292.592H198.107ZM212.193 294L211.281 291.488H206.241L205.329 294H203.745L207.921 282.8H209.601L213.777 294H212.193ZM206.753 290.096H210.769L208.753 284.576L206.753 290.096ZM224.004 292.512C222.884 293.643 221.514 294.208 219.892 294.208C218.271 294.208 216.9 293.643 215.78 292.512C214.66 291.381 214.1 290.011 214.1 288.4C214.1 286.779 214.66 285.408 215.78 284.288C216.9 283.157 218.271 282.592 219.892 282.592C221.514 282.592 222.884 283.157 224.004 284.288C225.135 285.408 225.7 286.779 225.7 288.4C225.7 290.011 225.135 291.381 224.004 292.512ZM216.804 291.504C217.636 292.336 218.666 292.752 219.892 292.752C221.119 292.752 222.143 292.336 222.964 291.504C223.796 290.661 224.212 289.627 224.212 288.4C224.212 287.163 223.796 286.128 222.964 285.296C222.143 284.453 221.119 284.032 219.892 284.032C218.666 284.032 217.636 284.453 216.804 285.296C215.983 286.128 215.572 287.163 215.572 288.4C215.572 289.627 215.983 290.661 216.804 291.504ZM239.985 285.792C240.881 285.792 241.606 286.085 242.161 286.672C242.716 287.248 242.993 288.032 242.993 289.024V294H241.601V289.072C241.601 288.453 241.441 287.973 241.121 287.632C240.801 287.291 240.374 287.12 239.841 287.12C239.244 287.12 238.764 287.323 238.401 287.728C238.049 288.123 237.873 288.731 237.873 289.552V294H236.481V289.072C236.481 288.453 236.326 287.973 236.017 287.632C235.718 287.291 235.308 287.12 234.785 287.12C234.198 287.12 233.708 287.323 233.313 287.728C232.929 288.133 232.737 288.741 232.737 289.552V294H231.345V286H232.737V287.072C233.281 286.219 234.076 285.792 235.121 285.792C236.198 285.792 236.982 286.245 237.473 287.152C238.028 286.245 238.865 285.792 239.985 285.792ZM245.899 290.64C246.038 291.355 246.363 291.909 246.875 292.304C247.398 292.699 248.038 292.896 248.795 292.896C249.851 292.896 250.619 292.507 251.099 291.728L252.283 292.4C251.505 293.605 250.331 294.208 248.763 294.208C247.494 294.208 246.459 293.813 245.659 293.024C244.87 292.224 244.475 291.216 244.475 290C244.475 288.795 244.865 287.792 245.643 286.992C246.422 286.192 247.43 285.792 248.667 285.792C249.841 285.792 250.795 286.208 251.531 287.04C252.278 287.861 252.651 288.853 252.651 290.016C252.651 290.219 252.635 290.427 252.603 290.64H245.899ZM248.667 287.104C247.921 287.104 247.302 287.317 246.811 287.744C246.321 288.16 246.017 288.72 245.899 289.424H251.243C251.126 288.667 250.827 288.091 250.347 287.696C249.867 287.301 249.307 287.104 248.667 287.104ZM262.891 285.792C263.787 285.792 264.513 286.085 265.067 286.672C265.622 287.248 265.899 288.032 265.899 289.024V294H264.507V289.072C264.507 288.453 264.347 287.973 264.027 287.632C263.707 287.291 263.281 287.12 262.747 287.12C262.15 287.12 261.67 287.323 261.307 287.728C260.955 288.123 260.779 288.731 260.779 289.552V294H259.387V289.072C259.387 288.453 259.233 287.973 258.923 287.632C258.625 287.291 258.214 287.12 257.691 287.12C257.105 287.12 256.614 287.323 256.219 287.728C255.835 288.133 255.643 288.741 255.643 289.552V294H254.251V286H255.643V287.072C256.187 286.219 256.982 285.792 258.027 285.792C259.105 285.792 259.889 286.245 260.379 287.152C260.934 286.245 261.771 285.792 262.891 285.792ZM272.245 285.792C273.365 285.792 274.32 286.203 275.109 287.024C275.899 287.835 276.293 288.827 276.293 290C276.293 291.173 275.899 292.171 275.109 292.992C274.32 293.803 273.365 294.208 272.245 294.208C270.923 294.208 269.915 293.68 269.221 292.624V294H267.829V282.8H269.221V287.376C269.915 286.32 270.923 285.792 272.245 285.792ZM272.069 292.864C272.869 292.864 273.541 292.592 274.085 292.048C274.629 291.493 274.901 290.811 274.901 290C274.901 289.189 274.629 288.512 274.085 287.968C273.541 287.413 272.869 287.136 272.069 287.136C271.259 287.136 270.581 287.413 270.037 287.968C269.493 288.512 269.221 289.189 269.221 290C269.221 290.811 269.493 291.493 270.037 292.048C270.581 292.592 271.259 292.864 272.069 292.864ZM278.93 290.64C279.069 291.355 279.394 291.909 279.906 292.304C280.429 292.699 281.069 292.896 281.826 292.896C282.882 292.896 283.65 292.507 284.13 291.728L285.314 292.4C284.536 293.605 283.362 294.208 281.794 294.208C280.525 294.208 279.49 293.813 278.69 293.024C277.901 292.224 277.506 291.216 277.506 290C277.506 288.795 277.896 287.792 278.674 286.992C279.453 286.192 280.461 285.792 281.698 285.792C282.872 285.792 283.826 286.208 284.562 287.04C285.309 287.861 285.682 288.853 285.682 290.016C285.682 290.219 285.666 290.427 285.634 290.64H278.93ZM281.698 287.104C280.952 287.104 280.333 287.317 279.842 287.744C279.352 288.16 279.048 288.72 278.93 289.424H284.274C284.157 288.667 283.858 288.091 283.378 287.696C282.898 287.301 282.338 287.104 281.698 287.104ZM288.675 287.344C289.133 286.352 289.965 285.856 291.171 285.856V287.312C290.488 287.28 289.901 287.461 289.411 287.856C288.92 288.251 288.675 288.885 288.675 289.76V294H287.283V286H288.675V287.344ZM293.436 288.16C293.436 288.469 293.59 288.72 293.9 288.912C294.209 289.093 294.582 289.243 295.02 289.36C295.457 289.467 295.894 289.595 296.332 289.744C296.769 289.883 297.142 290.128 297.452 290.48C297.761 290.821 297.916 291.264 297.916 291.808C297.916 292.533 297.633 293.115 297.068 293.552C296.513 293.989 295.798 294.208 294.924 294.208C294.145 294.208 293.478 294.037 292.924 293.696C292.369 293.355 291.974 292.901 291.74 292.336L292.94 291.648C293.068 292.032 293.308 292.336 293.66 292.56C294.012 292.784 294.433 292.896 294.924 292.896C295.382 292.896 295.761 292.811 296.06 292.64C296.358 292.459 296.508 292.181 296.508 291.808C296.508 291.499 296.353 291.253 296.044 291.072C295.734 290.88 295.361 290.731 294.924 290.624C294.486 290.507 294.049 290.373 293.612 290.224C293.174 290.075 292.801 289.829 292.492 289.488C292.182 289.147 292.028 288.709 292.028 288.176C292.028 287.483 292.294 286.912 292.828 286.464C293.372 286.016 294.049 285.792 294.86 285.792C295.51 285.792 296.086 285.941 296.588 286.24C297.1 286.528 297.484 286.933 297.74 287.456L296.572 288.112C296.284 287.429 295.713 287.088 294.86 287.088C294.465 287.088 294.129 287.184 293.852 287.376C293.574 287.557 293.436 287.819 293.436 288.16ZM312.988 286H314.444L311.964 294H310.54L308.668 288.08L306.796 294H305.372L302.892 286H304.348L306.108 292.08L307.996 286H309.34L311.228 292.096L312.988 286ZM316.58 284.544C316.314 284.544 316.09 284.453 315.908 284.272C315.727 284.091 315.636 283.872 315.636 283.616C315.636 283.36 315.727 283.141 315.908 282.96C316.09 282.768 316.314 282.672 316.58 282.672C316.836 282.672 317.055 282.768 317.236 282.96C317.418 283.141 317.508 283.36 317.508 283.616C317.508 283.872 317.418 284.091 317.236 284.272C317.055 284.453 316.836 284.544 316.58 284.544ZM315.876 294V286H317.268V294H315.876ZM323.744 287.344H321.616V291.68C321.616 292.075 321.691 292.357 321.84 292.528C322 292.688 322.24 292.773 322.56 292.784C322.88 292.784 323.275 292.773 323.744 292.752V294C322.528 294.16 321.637 294.064 321.072 293.712C320.507 293.349 320.224 292.672 320.224 291.68V287.344H318.64V286H320.224V284.176L321.616 283.76V286H323.744V287.344ZM329.376 285.792C330.315 285.792 331.067 286.091 331.632 286.688C332.197 287.275 332.48 288.075 332.48 289.088V294H331.088V289.168C331.088 288.517 330.912 288.016 330.56 287.664C330.208 287.301 329.723 287.12 329.104 287.12C328.411 287.12 327.851 287.339 327.424 287.776C326.997 288.203 326.784 288.864 326.784 289.76V294H325.392V282.8H326.784V287.152C327.349 286.245 328.213 285.792 329.376 285.792ZM177.91 316.208C176.864 316.208 175.968 315.963 175.222 315.472C174.486 314.981 173.968 314.309 173.67 313.456L174.95 312.72C175.387 314.075 176.384 314.752 177.942 314.752C178.71 314.752 179.296 314.597 179.702 314.288C180.107 313.968 180.31 313.547 180.31 313.024C180.31 312.491 180.107 312.091 179.702 311.824C179.296 311.557 178.619 311.275 177.67 310.976C177.2 310.827 176.843 310.709 176.598 310.624C176.352 310.528 176.043 310.389 175.67 310.208C175.307 310.016 175.035 309.824 174.854 309.632C174.672 309.429 174.507 309.168 174.358 308.848C174.219 308.528 174.15 308.165 174.15 307.76C174.15 306.789 174.491 306.021 175.174 305.456C175.856 304.88 176.688 304.592 177.67 304.592C178.555 304.592 179.323 304.816 179.974 305.264C180.635 305.712 181.131 306.304 181.462 307.04L180.214 307.76C179.734 306.608 178.886 306.032 177.67 306.032C177.062 306.032 176.571 306.181 176.198 306.48C175.824 306.779 175.638 307.184 175.638 307.696C175.638 308.187 175.814 308.56 176.166 308.816C176.518 309.072 177.126 309.339 177.99 309.616C178.299 309.712 178.518 309.781 178.646 309.824C178.774 309.867 178.971 309.941 179.238 310.048C179.515 310.155 179.718 310.24 179.846 310.304C179.974 310.368 180.144 310.459 180.358 310.576C180.582 310.693 180.747 310.805 180.854 310.912C180.96 311.019 181.083 311.152 181.222 311.312C181.371 311.461 181.478 311.616 181.542 311.776C181.606 311.936 181.659 312.123 181.702 312.336C181.755 312.539 181.782 312.757 181.782 312.992C181.782 313.973 181.424 314.757 180.71 315.344C179.995 315.92 179.062 316.208 177.91 316.208ZM189.866 310.192C190.378 310.437 190.783 310.789 191.082 311.248C191.391 311.707 191.546 312.235 191.546 312.832C191.546 313.728 191.231 314.48 190.602 315.088C189.972 315.696 189.204 316 188.298 316H183.466V304.8H187.946C188.82 304.8 189.562 305.093 190.17 305.68C190.778 306.267 191.082 306.992 191.082 307.856C191.082 308.848 190.676 309.627 189.866 310.192ZM187.946 306.192H184.954V309.616H187.946C188.415 309.616 188.81 309.451 189.13 309.12C189.45 308.789 189.61 308.384 189.61 307.904C189.61 307.435 189.444 307.035 189.114 306.704C188.794 306.363 188.404 306.192 187.946 306.192ZM188.298 314.608C188.799 314.608 189.22 314.432 189.562 314.08C189.903 313.728 190.074 313.296 190.074 312.784C190.074 312.283 189.898 311.856 189.546 311.504C189.204 311.152 188.788 310.976 188.298 310.976H184.954V314.608H188.298ZM200.165 304.8V306.208H196.853V316H195.381V306.208H192.085V304.8H200.165ZM209.91 307.792C211.03 307.792 211.984 308.203 212.774 309.024C213.563 309.835 213.958 310.827 213.958 312C213.958 313.173 213.563 314.171 212.774 314.992C211.984 315.803 211.03 316.208 209.91 316.208C208.587 316.208 207.579 315.68 206.886 314.624V319.2H205.493V308H206.886V309.376C207.579 308.32 208.587 307.792 209.91 307.792ZM209.734 314.864C210.534 314.864 211.206 314.592 211.75 314.048C212.294 313.493 212.566 312.811 212.566 312C212.566 311.189 212.294 310.512 211.75 309.968C211.206 309.413 210.534 309.136 209.734 309.136C208.923 309.136 208.246 309.413 207.702 309.968C207.158 310.512 206.886 311.189 206.886 312C206.886 312.811 207.158 313.493 207.702 314.048C208.246 314.592 208.923 314.864 209.734 314.864ZM217.011 309.344C217.469 308.352 218.301 307.856 219.507 307.856V309.312C218.824 309.28 218.237 309.461 217.747 309.856C217.256 310.251 217.011 310.885 217.011 311.76V316H215.618V308H217.011V309.344ZM227.183 314.992C226.362 315.803 225.364 316.208 224.191 316.208C223.018 316.208 222.02 315.803 221.199 314.992C220.388 314.181 219.983 313.184 219.983 312C219.983 310.816 220.388 309.819 221.199 309.008C222.02 308.197 223.018 307.792 224.191 307.792C225.364 307.792 226.362 308.197 227.183 309.008C228.004 309.819 228.415 310.816 228.415 312C228.415 313.184 228.004 314.181 227.183 314.992ZM224.191 314.848C224.991 314.848 225.663 314.576 226.207 314.032C226.751 313.488 227.023 312.811 227.023 312C227.023 311.189 226.751 310.512 226.207 309.968C225.663 309.424 224.991 309.152 224.191 309.152C223.402 309.152 222.735 309.424 222.191 309.968C221.647 310.512 221.375 311.189 221.375 312C221.375 312.811 221.647 313.488 222.191 314.032C222.735 314.576 223.402 314.848 224.191 314.848ZM236.438 316H234.806L232.566 312.976L230.31 316H228.678L231.75 311.888L228.854 308H230.502L232.566 310.784L234.63 308H236.262L233.382 311.872L236.438 316ZM243.312 308H244.8L241.536 316.496C241.195 317.403 240.715 318.091 240.096 318.56C239.488 319.04 238.784 319.253 237.984 319.2V317.904C238.965 317.979 239.685 317.435 240.144 316.272L240.288 315.968L236.8 308H238.288L241.008 314.272L243.312 308Z" fill="#150B4D"/>
<rect x="1.5" y="89.8867" width="415" height="289" rx="21" stroke="url(#paint0_linear_6940_43912)" stroke-width="2" stroke-dasharray="6 6"/>
<rect x="1.5" y="89.8867" width="415" height="289" rx="21" stroke="white" stroke-opacity="0.56" stroke-width="2" stroke-dasharray="6 6"/>
<path d="M108.665 72.0217C119.574 65.7236 133.014 65.7236 143.923 72.0217V72.0217C154.831 78.3199 161.551 89.9594 161.551 102.556V102.556C161.551 115.152 154.831 126.791 143.923 133.09V133.09C133.014 139.388 119.574 139.388 108.665 133.09V133.09C97.7564 126.791 91.0364 115.152 91.0364 102.556V102.556C91.0364 89.9594 97.7564 78.3199 108.665 72.0217V72.0217Z" fill="#7DD7BE"/>
<path d="M166.347 36.1153C164.885 33.5583 161.627 32.6704 159.071 34.1321V34.1321C156.514 35.5937 155.626 38.8514 157.087 41.4084V41.4084C158.549 43.9653 161.807 44.8532 164.364 43.3916V43.3916C166.921 41.9299 167.808 38.6722 166.347 36.1153V36.1153Z" fill="#F6A081"/>
<path d="M99.9223 146.648C100.2 144.609 102.078 143.181 104.117 143.459V143.459C106.156 143.737 107.584 145.615 107.306 147.654V147.654C107.028 149.693 105.15 151.12 103.111 150.843V150.843C101.072 150.565 99.6444 148.687 99.9223 146.648V146.648Z" fill="#E798AE"/>
<path d="M71.7948 99.4401C70.6825 98.7979 69.312 98.7979 68.1997 99.4401V99.4401C67.0874 100.082 66.4022 101.269 66.4022 102.554V102.554C66.4022 103.838 67.0874 105.025 68.1997 105.667V105.667C69.312 106.309 70.6825 106.309 71.7948 105.667V105.667C72.9071 105.025 73.5923 103.838 73.5923 102.554V102.554C73.5923 101.269 72.9071 100.082 71.7948 99.4401V99.4401Z" fill="#E089DD"/>
<path d="M124.73 1.43991C124.108 1.08068 123.341 1.08068 122.719 1.43991V1.43991C122.097 1.79915 121.714 2.46305 121.714 3.18153V3.18153C121.714 3.90001 122.097 4.56391 122.719 4.92315V4.92315C123.341 5.28238 124.108 5.28238 124.73 4.92315V4.92315C125.352 4.56391 125.736 3.90001 125.736 3.18153V3.18153C125.736 2.46305 125.352 1.79915 124.73 1.43991V1.43991Z" fill="#F49F88"/>
<g filter="url(#filter0_f_6940_43912)">
<path d="M205 37.8868C208.094 36.1004 211.906 36.1004 215 37.8868L289.004 80.6132C292.098 82.3996 294.004 85.7008 294.004 89.2735V174.727C294.004 178.299 292.098 181.6 289.004 183.387L215 226.113C211.906 227.9 208.094 227.9 205 226.113L130.996 183.387C127.902 181.6 125.996 178.299 125.996 174.726V89.2735C125.996 85.7008 127.902 82.3996 130.996 80.6132L205 37.8868Z" fill="url(#paint1_linear_6940_43912)"/>
<path d="M205 37.8868C208.094 36.1004 211.906 36.1004 215 37.8868L289.004 80.6132C292.098 82.3996 294.004 85.7008 294.004 89.2735V174.727C294.004 178.299 292.098 181.6 289.004 183.387L215 226.113C211.906 227.9 208.094 227.9 205 226.113L130.996 183.387C127.902 181.6 125.996 178.299 125.996 174.726V89.2735C125.996 85.7008 127.902 82.3996 130.996 80.6132L205 37.8868Z" fill="white" fill-opacity="0.56"/>
</g>
<path d="M104.87 39.784C106.869 36.7405 110.957 35.894 114.001 37.8932V37.8932C117.044 39.8925 117.891 43.9805 115.892 47.024V47.024C113.892 50.0675 109.804 50.914 106.761 48.9148V48.9148C103.717 46.9155 102.871 42.8275 104.87 39.784V39.784Z" fill="#E089DD"/>
<path d="M137.539 39.3384C136.917 38.9791 136.15 38.9791 135.528 39.3384V39.3384C134.906 39.6976 134.522 40.3615 134.522 41.08V41.08C134.522 41.7984 134.906 42.4623 135.528 42.8216V42.8216C136.15 43.1808 136.917 43.1808 137.539 42.8216V42.8216C138.161 42.4623 138.544 41.7984 138.544 41.08V41.08C138.544 40.3615 138.161 39.6976 137.539 39.3384V39.3384Z" fill="#D38CE7"/>
<path d="M187.048 8.12843C184.235 6.50437 180.769 6.50437 177.956 8.12843V8.12843C175.143 9.7525 173.41 12.7539 173.41 16.002V16.002C173.41 19.2501 175.143 22.2515 177.956 23.8756V23.8756C180.769 25.4997 184.235 25.4997 187.048 23.8756V23.8756C189.861 22.2515 191.594 19.2501 191.594 16.002V16.002C191.594 12.7539 189.861 9.7525 187.048 8.12843V8.12843Z" fill="#7DD7BE"/>
<path d="M268.703 46.1118C268.081 45.7526 267.314 45.7526 266.692 46.1118V46.1118C266.07 46.471 265.686 47.1349 265.686 47.8534V47.8534C265.686 48.5719 266.07 49.2358 266.692 49.595V49.595C267.314 49.9543 268.081 49.9543 268.703 49.595V49.595C269.325 49.2358 269.708 48.5719 269.708 47.8534V47.8534C269.708 47.1349 269.325 46.471 268.703 46.1118V46.1118Z" fill="#F49F88"/>
<path d="M218.247 30.4475L292.172 73.1277C297.895 76.4324 301.422 82.5398 301.422 89.1492V174.51C301.422 181.119 297.895 187.226 292.172 190.531L218.247 233.211C212.523 236.516 205.471 236.516 199.747 233.211L125.823 190.531C120.099 187.226 116.573 181.119 116.573 174.51V89.1492C116.573 82.5398 120.099 76.4324 125.823 73.1277L199.747 30.4475C205.471 27.1428 212.523 27.1428 218.247 30.4475Z" stroke="white" stroke-width="3"/>
<path d="M203.788 59.8867C206.882 58.1004 210.693 58.1004 213.788 59.8868L268.555 91.507C271.649 93.2933 273.555 96.5946 273.555 100.167V163.408C273.555 166.98 271.649 170.282 268.555 172.068L213.788 203.688C210.693 205.475 206.882 205.475 203.788 203.688L149.02 172.068C145.926 170.282 144.02 166.98 144.02 163.408V100.167C144.02 96.5946 145.926 93.2933 149.02 91.507L203.788 59.8867Z" fill="#9F9EEE"/>
<path d="M203.788 59.8867C206.882 58.1004 210.693 58.1004 213.788 59.8868L268.555 91.507C271.649 93.2933 273.555 96.5946 273.555 100.167V163.408C273.555 166.98 271.649 170.282 268.555 172.068L213.788 203.688C210.693 205.475 206.882 205.475 203.788 203.688L149.02 172.068C145.926 170.282 144.02 166.98 144.02 163.408V100.167C144.02 96.5946 145.926 93.2933 149.02 91.507L203.788 59.8867Z" fill="black" fill-opacity="0.2"/>
<path d="M203.788 59.8867C206.882 58.1004 210.693 58.1004 213.788 59.8868L268.555 91.507C271.649 93.2933 273.555 96.5946 273.555 100.167V163.408C273.555 166.98 271.649 170.282 268.555 172.068L213.788 203.688C210.693 205.475 206.882 205.475 203.788 203.688L149.02 172.068C145.926 170.282 144.02 166.98 144.02 163.408V100.167C144.02 96.5946 145.926 93.2933 149.02 91.507L203.788 59.8867Z" fill="white"/>
<defs>
<filter id="filter0_f_6940_43912" x="100.996" y="11.5469" width="218.008" height="240.906" filterUnits="userSpaceOnUse" color-interpolation-filters="sRGB">
<feFlood flood-opacity="0" result="BackgroundImageFix"/>
<feBlend mode="normal" in="SourceGraphic" in2="BackgroundImageFix" result="shape"/>
<feGaussianBlur stdDeviation="12.5" result="effect1_foregroundBlur_6940_43912"/>
</filter>
<linearGradient id="paint0_linear_6940_43912" x1="-14.02" y1="-11.2022" x2="551.148" y2="333.196" gradientUnits="userSpaceOnUse">
<stop stop-color="#5755FF"/>
<stop offset="1" stop-color="#FF8AA6"/>
</linearGradient>
<linearGradient id="paint1_linear_6940_43912" x1="105.24" y1="-34.0078" x2="413.943" y2="96.7165" gradientUnits="userSpaceOnUse">
<stop stop-color="#5755FF"/>
<stop offset="1" stop-color="#FF8AA6"/>
</linearGradient>
</defs>
</svg>
