<svg width="418" height="380" viewBox="0 0 418 380" fill="none" xmlns="http://www.w3.org/2000/svg">
<rect x="1.5" y="89.8867" width="415" height="289" rx="21" fill="white"/>
<g filter="url(#filter0_f_6940_43931)">
<path d="M204 41.6485C207.095 39.8621 210.906 39.8621 214 41.6485L283.729 81.9065C286.823 83.6928 288.729 86.9941 288.729 90.5667V171.083C288.729 174.655 286.823 177.957 283.729 179.743L214 220.001C210.906 221.787 207.094 221.787 204 220.001L134.272 179.743C131.178 177.957 129.272 174.655 129.272 171.083V90.5667C129.272 86.9941 131.178 83.6928 134.272 81.9065L204 41.6485Z" fill="url(#paint0_linear_6940_43931)"/>
<path d="M204 41.6485C207.095 39.8621 210.906 39.8621 214 41.6485L283.729 81.9065C286.823 83.6928 288.729 86.9941 288.729 90.5667V171.083C288.729 174.655 286.823 177.957 283.729 179.743L214 220.001C210.906 221.787 207.094 221.787 204 220.001L134.272 179.743C131.178 177.957 129.272 174.655 129.272 171.083V90.5667C129.272 86.9941 131.178 83.6928 134.272 81.9065L204 41.6485Z" fill="white" fill-opacity="0.56"/>
</g>
<path d="M85.0765 282.8C86.1112 282.8 86.9698 283.147 87.6525 283.84C88.3458 284.523 88.6925 285.376 88.6925 286.4C88.6925 287.413 88.3458 288.267 87.6525 288.96C86.9698 289.653 86.1112 290 85.0765 290H82.5005V294H81.0125V282.8H85.0765ZM85.0765 288.608C85.6952 288.608 86.2072 288.4 86.6125 287.984C87.0178 287.557 87.2205 287.029 87.2205 286.4C87.2205 285.76 87.0178 285.232 86.6125 284.816C86.2072 284.4 85.6952 284.192 85.0765 284.192H82.5005V288.608H85.0765ZM91.5261 287.344C91.9848 286.352 92.8168 285.856 94.0221 285.856V287.312C93.3395 287.28 92.7528 287.461 92.2621 287.856C91.7715 288.251 91.5261 288.885 91.5261 289.76V294H90.1341V286H91.5261V287.344ZM101.699 292.992C100.877 293.803 99.88 294.208 98.7066 294.208C97.5333 294.208 96.536 293.803 95.7146 292.992C94.904 292.181 94.4986 291.184 94.4986 290C94.4986 288.816 94.904 287.819 95.7146 287.008C96.536 286.197 97.5333 285.792 98.7066 285.792C99.88 285.792 100.877 286.197 101.699 287.008C102.52 287.819 102.931 288.816 102.931 290C102.931 291.184 102.52 292.181 101.699 292.992ZM98.7066 292.848C99.5066 292.848 100.179 292.576 100.723 292.032C101.267 291.488 101.539 290.811 101.539 290C101.539 289.189 101.267 288.512 100.723 287.968C100.179 287.424 99.5066 287.152 98.7066 287.152C97.9173 287.152 97.2506 287.424 96.7066 287.968C96.1626 288.512 95.8906 289.189 95.8906 290C95.8906 290.811 96.1626 291.488 96.7066 292.032C97.2506 292.576 97.9173 292.848 98.7066 292.848ZM109.859 286H111.363L108.163 294H106.531L103.331 286H104.835L107.347 292.512L109.859 286ZM113.204 290.64C113.343 291.355 113.668 291.909 114.18 292.304C114.703 292.699 115.343 292.896 116.1 292.896C117.156 292.896 117.924 292.507 118.404 291.728L119.588 292.4C118.809 293.605 117.636 294.208 116.068 294.208C114.799 294.208 113.764 293.813 112.964 293.024C112.175 292.224 111.78 291.216 111.78 290C111.78 288.795 112.169 287.792 112.948 286.992C113.727 286.192 114.735 285.792 115.972 285.792C117.145 285.792 118.1 286.208 118.836 287.04C119.583 287.861 119.956 288.853 119.956 290.016C119.956 290.219 119.94 290.427 119.908 290.64H113.204ZM115.972 287.104C115.225 287.104 114.607 287.317 114.116 287.744C113.625 288.16 113.321 288.72 113.204 289.424H118.548C118.431 288.667 118.132 288.091 117.652 287.696C117.172 287.301 116.612 287.104 115.972 287.104ZM131.14 286H132.628L129.364 294.496C129.023 295.403 128.543 296.091 127.924 296.56C127.316 297.04 126.612 297.253 125.812 297.2V295.904C126.793 295.979 127.513 295.435 127.972 294.272L128.116 293.968L124.628 286H126.116L128.836 292.272L131.14 286ZM140.23 292.992C139.409 293.803 138.411 294.208 137.238 294.208C136.065 294.208 135.067 293.803 134.246 292.992C133.435 292.181 133.03 291.184 133.03 290C133.03 288.816 133.435 287.819 134.246 287.008C135.067 286.197 136.065 285.792 137.238 285.792C138.411 285.792 139.409 286.197 140.23 287.008C141.051 287.819 141.462 288.816 141.462 290C141.462 291.184 141.051 292.181 140.23 292.992ZM137.238 292.848C138.038 292.848 138.71 292.576 139.254 292.032C139.798 291.488 140.07 290.811 140.07 290C140.07 289.189 139.798 288.512 139.254 287.968C138.71 287.424 138.038 287.152 137.238 287.152C136.449 287.152 135.782 287.424 135.238 287.968C134.694 288.512 134.422 289.189 134.422 290C134.422 290.811 134.694 291.488 135.238 292.032C135.782 292.576 136.449 292.848 137.238 292.848ZM148.623 286H150.015V294H148.623V292.848C148.058 293.755 147.194 294.208 146.031 294.208C145.092 294.208 144.34 293.915 143.775 293.328C143.21 292.731 142.927 291.925 142.927 290.912V286H144.319V290.832C144.319 291.483 144.495 291.989 144.847 292.352C145.199 292.704 145.684 292.88 146.303 292.88C146.996 292.88 147.556 292.667 147.983 292.24C148.41 291.803 148.623 291.136 148.623 290.24V286ZM153.526 287.344C153.985 286.352 154.817 285.856 156.022 285.856V287.312C155.339 287.28 154.753 287.461 154.262 287.856C153.771 288.251 153.526 288.885 153.526 289.76V294H152.134V286H153.526V287.344ZM162.776 287.344C163.235 286.352 164.067 285.856 165.272 285.856V287.312C164.589 287.28 164.003 287.461 163.512 287.856C163.021 288.251 162.776 288.885 162.776 289.76V294H161.384V286H162.776V287.344ZM172.949 292.992C172.127 293.803 171.13 294.208 169.957 294.208C168.783 294.208 167.786 293.803 166.965 292.992C166.154 292.181 165.749 291.184 165.749 290C165.749 288.816 166.154 287.819 166.965 287.008C167.786 286.197 168.783 285.792 169.957 285.792C171.13 285.792 172.127 286.197 172.949 287.008C173.77 287.819 174.181 288.816 174.181 290C174.181 291.184 173.77 292.181 172.949 292.992ZM169.957 292.848C170.757 292.848 171.429 292.576 171.973 292.032C172.517 291.488 172.789 290.811 172.789 290C172.789 289.189 172.517 288.512 171.973 287.968C171.429 287.424 170.757 287.152 169.957 287.152C169.167 287.152 168.501 287.424 167.957 287.968C167.413 288.512 167.141 289.189 167.141 290C167.141 290.811 167.413 291.488 167.957 292.032C168.501 292.576 169.167 292.848 169.957 292.848ZM175.822 294V282.32H177.214V294H175.822ZM180.313 290.64C180.452 291.355 180.777 291.909 181.289 292.304C181.812 292.699 182.452 292.896 183.209 292.896C184.265 292.896 185.033 292.507 185.513 291.728L186.697 292.4C185.919 293.605 184.745 294.208 183.177 294.208C181.908 294.208 180.873 293.813 180.073 293.024C179.284 292.224 178.889 291.216 178.889 290C178.889 288.795 179.279 287.792 180.057 286.992C180.836 286.192 181.844 285.792 183.081 285.792C184.255 285.792 185.209 286.208 185.945 287.04C186.692 287.861 187.065 288.853 187.065 290.016C187.065 290.219 187.049 290.427 187.017 290.64H180.313ZM183.081 287.104C182.335 287.104 181.716 287.317 181.225 287.744C180.735 288.16 180.431 288.72 180.313 289.424H185.657C185.54 288.667 185.241 288.091 184.761 287.696C184.281 287.301 183.721 287.104 183.081 287.104ZM199.289 286H200.681V294H199.289V292.624C198.596 293.68 197.588 294.208 196.265 294.208C195.145 294.208 194.191 293.803 193.401 292.992C192.612 292.171 192.217 291.173 192.217 290C192.217 288.827 192.612 287.835 193.401 287.024C194.191 286.203 195.145 285.792 196.265 285.792C197.588 285.792 198.596 286.32 199.289 287.376V286ZM196.441 292.864C197.252 292.864 197.929 292.592 198.473 292.048C199.017 291.493 199.289 290.811 199.289 290C199.289 289.189 199.017 288.512 198.473 287.968C197.929 287.413 197.252 287.136 196.441 287.136C195.641 287.136 194.969 287.413 194.425 287.968C193.881 288.512 193.609 289.189 193.609 290C193.609 290.811 193.881 291.493 194.425 292.048C194.969 292.592 195.641 292.864 196.441 292.864ZM206.774 285.792C207.713 285.792 208.465 286.091 209.03 286.688C209.596 287.275 209.878 288.075 209.878 289.088V294H208.486V289.168C208.486 288.517 208.31 288.016 207.958 287.664C207.606 287.301 207.121 287.12 206.502 287.12C205.809 287.12 205.249 287.339 204.822 287.776C204.396 288.203 204.182 288.864 204.182 289.76V294H202.79V286H204.182V287.152C204.748 286.245 205.612 285.792 206.774 285.792ZM218.446 282.8H219.838V294H218.446V292.624C217.752 293.68 216.744 294.208 215.422 294.208C214.302 294.208 213.347 293.803 212.558 292.992C211.768 292.171 211.374 291.173 211.374 290C211.374 288.827 211.768 287.835 212.558 287.024C213.347 286.203 214.302 285.792 215.422 285.792C216.744 285.792 217.752 286.32 218.446 287.376V282.8ZM215.598 292.864C216.408 292.864 217.086 292.592 217.63 292.048C218.174 291.493 218.446 290.811 218.446 290C218.446 289.189 218.174 288.512 217.63 287.968C217.086 287.413 216.408 287.136 215.598 287.136C214.798 287.136 214.126 287.413 213.582 287.968C213.038 288.512 212.766 289.189 212.766 290C212.766 290.811 213.038 291.493 213.582 292.048C214.126 292.592 214.798 292.864 215.598 292.864ZM229.707 294.208C228.501 294.208 227.499 293.808 226.699 293.008C225.899 292.197 225.499 291.195 225.499 290C225.499 288.805 225.899 287.808 226.699 287.008C227.499 286.197 228.501 285.792 229.707 285.792C230.496 285.792 231.205 285.984 231.835 286.368C232.464 286.741 232.933 287.248 233.243 287.888L232.075 288.56C231.872 288.133 231.557 287.792 231.131 287.536C230.715 287.28 230.24 287.152 229.707 287.152C228.907 287.152 228.235 287.424 227.691 287.968C227.157 288.512 226.891 289.189 226.891 290C226.891 290.8 227.157 291.472 227.691 292.016C228.235 292.56 228.907 292.832 229.707 292.832C230.24 292.832 230.72 292.709 231.147 292.464C231.573 292.208 231.899 291.867 232.123 291.44L233.307 292.128C232.965 292.757 232.475 293.264 231.835 293.648C231.195 294.021 230.485 294.208 229.707 294.208ZM241.324 292.992C240.502 293.803 239.505 294.208 238.332 294.208C237.158 294.208 236.161 293.803 235.34 292.992C234.529 292.181 234.124 291.184 234.124 290C234.124 288.816 234.529 287.819 235.34 287.008C236.161 286.197 237.158 285.792 238.332 285.792C239.505 285.792 240.502 286.197 241.324 287.008C242.145 287.819 242.556 288.816 242.556 290C242.556 291.184 242.145 292.181 241.324 292.992ZM238.332 292.848C239.132 292.848 239.804 292.576 240.348 292.032C240.892 291.488 241.164 290.811 241.164 290C241.164 289.189 240.892 288.512 240.348 287.968C239.804 287.424 239.132 287.152 238.332 287.152C237.542 287.152 236.876 287.424 236.332 287.968C235.788 288.512 235.516 289.189 235.516 290C235.516 290.811 235.788 291.488 236.332 292.032C236.876 292.576 237.542 292.848 238.332 292.848ZM248.181 285.792C249.119 285.792 249.871 286.091 250.437 286.688C251.002 287.275 251.285 288.075 251.285 289.088V294H249.893V289.168C249.893 288.517 249.717 288.016 249.365 287.664C249.013 287.301 248.527 287.12 247.909 287.12C247.215 287.12 246.655 287.339 246.229 287.776C245.802 288.203 245.589 288.864 245.589 289.76V294H244.197V286H245.589V287.152C246.154 286.245 247.018 285.792 248.181 285.792ZM257.58 287.344H255.452V291.68C255.452 292.075 255.527 292.357 255.676 292.528C255.836 292.688 256.076 292.773 256.396 292.784C256.716 292.784 257.111 292.773 257.58 292.752V294C256.364 294.16 255.473 294.064 254.908 293.712C254.343 293.349 254.06 292.672 254.06 291.68V287.344H252.476V286H254.06V284.176L255.452 283.76V286H257.58V287.344ZM260.667 287.344C261.125 286.352 261.957 285.856 263.163 285.856V287.312C262.48 287.28 261.893 287.461 261.403 287.856C260.912 288.251 260.667 288.885 260.667 289.76V294H259.275V286H260.667V287.344ZM265.229 284.544C264.962 284.544 264.738 284.453 264.557 284.272C264.375 284.091 264.285 283.872 264.285 283.616C264.285 283.36 264.375 283.141 264.557 282.96C264.738 282.768 264.962 282.672 265.229 282.672C265.485 282.672 265.703 282.768 265.885 282.96C266.066 283.141 266.157 283.36 266.157 283.616C266.157 283.872 266.066 284.091 265.885 284.272C265.703 284.453 265.485 284.544 265.229 284.544ZM264.525 294V286H265.917V294H264.525ZM272.456 285.792C273.576 285.792 274.531 286.203 275.32 287.024C276.11 287.835 276.504 288.827 276.504 290C276.504 291.173 276.11 292.171 275.32 292.992C274.531 293.803 273.576 294.208 272.456 294.208C271.134 294.208 270.126 293.68 269.432 292.624V294H268.04V282.8H269.432V287.376C270.126 286.32 271.134 285.792 272.456 285.792ZM272.28 292.864C273.08 292.864 273.752 292.592 274.296 292.048C274.84 291.493 275.112 290.811 275.112 290C275.112 289.189 274.84 288.512 274.296 287.968C273.752 287.413 273.08 287.136 272.28 287.136C271.47 287.136 270.792 287.413 270.248 287.968C269.704 288.512 269.432 289.189 269.432 290C269.432 290.811 269.704 291.493 270.248 292.048C270.792 292.592 271.47 292.864 272.28 292.864ZM283.685 286H285.077V294H283.685V292.848C283.12 293.755 282.256 294.208 281.093 294.208C280.155 294.208 279.403 293.915 278.837 293.328C278.272 292.731 277.989 291.925 277.989 290.912V286H279.381V290.832C279.381 291.483 279.557 291.989 279.909 292.352C280.261 292.704 280.747 292.88 281.365 292.88C282.059 292.88 282.619 292.667 283.045 292.24C283.472 291.803 283.685 291.136 283.685 290.24V286ZM291.549 287.344H289.421V291.68C289.421 292.075 289.495 292.357 289.645 292.528C289.805 292.688 290.045 292.773 290.365 292.784C290.685 292.784 291.079 292.773 291.549 292.752V294C290.333 294.16 289.442 294.064 288.877 293.712C288.311 293.349 288.029 292.672 288.029 291.68V287.344H286.445V286H288.029V284.176L289.421 283.76V286H291.549V287.344ZM293.901 284.544C293.634 284.544 293.41 284.453 293.229 284.272C293.047 284.091 292.957 283.872 292.957 283.616C292.957 283.36 293.047 283.141 293.229 282.96C293.41 282.768 293.634 282.672 293.901 282.672C294.157 282.672 294.375 282.768 294.557 282.96C294.738 283.141 294.829 283.36 294.829 283.616C294.829 283.872 294.738 284.091 294.557 284.272C294.375 284.453 294.157 284.544 293.901 284.544ZM293.197 294V286H294.589V294H293.197ZM303.464 292.992C302.643 293.803 301.646 294.208 300.472 294.208C299.299 294.208 298.302 293.803 297.48 292.992C296.67 292.181 296.264 291.184 296.264 290C296.264 288.816 296.67 287.819 297.48 287.008C298.302 286.197 299.299 285.792 300.472 285.792C301.646 285.792 302.643 286.197 303.464 287.008C304.286 287.819 304.696 288.816 304.696 290C304.696 291.184 304.286 292.181 303.464 292.992ZM300.472 292.848C301.272 292.848 301.944 292.576 302.488 292.032C303.032 291.488 303.304 290.811 303.304 290C303.304 289.189 303.032 288.512 302.488 287.968C301.944 287.424 301.272 287.152 300.472 287.152C299.683 287.152 299.016 287.424 298.472 287.968C297.928 288.512 297.656 289.189 297.656 290C297.656 290.811 297.928 291.488 298.472 292.032C299.016 292.576 299.683 292.848 300.472 292.848ZM310.321 285.792C311.26 285.792 312.012 286.091 312.577 286.688C313.143 287.275 313.425 288.075 313.425 289.088V294H312.033V289.168C312.033 288.517 311.857 288.016 311.505 287.664C311.153 287.301 310.668 287.12 310.049 287.12C309.356 287.12 308.796 287.339 308.369 287.776C307.943 288.203 307.729 288.864 307.729 289.76V294H306.337V286H307.729V287.152C308.295 286.245 309.159 285.792 310.321 285.792ZM316.569 288.16C316.569 288.469 316.723 288.72 317.033 288.912C317.342 289.093 317.715 289.243 318.153 289.36C318.59 289.467 319.027 289.595 319.465 289.744C319.902 289.883 320.275 290.128 320.585 290.48C320.894 290.821 321.049 291.264 321.049 291.808C321.049 292.533 320.766 293.115 320.201 293.552C319.646 293.989 318.931 294.208 318.057 294.208C317.278 294.208 316.611 294.037 316.057 293.696C315.502 293.355 315.107 292.901 314.873 292.336L316.073 291.648C316.201 292.032 316.441 292.336 316.793 292.56C317.145 292.784 317.566 292.896 318.057 292.896C318.515 292.896 318.894 292.811 319.193 292.64C319.491 292.459 319.641 292.181 319.641 291.808C319.641 291.499 319.486 291.253 319.177 291.072C318.867 290.88 318.494 290.731 318.057 290.624C317.619 290.507 317.182 290.373 316.745 290.224C316.307 290.075 315.934 289.829 315.625 289.488C315.315 289.147 315.161 288.709 315.161 288.176C315.161 287.483 315.427 286.912 315.961 286.464C316.505 286.016 317.182 285.792 317.993 285.792C318.643 285.792 319.219 285.941 319.721 286.24C320.233 286.528 320.617 286.933 320.873 287.456L319.705 288.112C319.417 287.429 318.846 287.088 317.993 287.088C317.598 287.088 317.262 287.184 316.985 287.376C316.707 287.557 316.569 287.819 316.569 288.16ZM327.401 284.544C327.134 284.544 326.91 284.453 326.729 284.272C326.547 284.091 326.457 283.872 326.457 283.616C326.457 283.36 326.547 283.141 326.729 282.96C326.91 282.768 327.134 282.672 327.401 282.672C327.657 282.672 327.875 282.768 328.057 282.96C328.238 283.141 328.329 283.36 328.329 283.616C328.329 283.872 328.238 284.091 328.057 284.272C327.875 284.453 327.657 284.544 327.401 284.544ZM326.697 294V286H328.089V294H326.697ZM334.196 285.792C335.135 285.792 335.887 286.091 336.452 286.688C337.018 287.275 337.3 288.075 337.3 289.088V294H335.908V289.168C335.908 288.517 335.732 288.016 335.38 287.664C335.028 287.301 334.543 287.12 333.924 287.12C333.231 287.12 332.671 287.339 332.244 287.776C331.818 288.203 331.604 288.864 331.604 289.76V294H330.212V286H331.604V287.152C332.17 286.245 333.034 285.792 334.196 285.792ZM197.693 304.8C199.218 304.8 200.482 305.344 201.485 306.432C202.498 307.509 203.005 308.832 203.005 310.4C203.005 311.968 202.498 313.296 201.485 314.384C200.482 315.461 199.218 316 197.693 316H193.325V304.8H197.693ZM197.693 314.592C198.834 314.592 199.768 314.192 200.493 313.392C201.218 312.592 201.581 311.595 201.581 310.4C201.581 309.205 201.218 308.208 200.493 307.408C199.768 306.608 198.834 306.208 197.693 306.208H194.813V314.592H197.693ZM211.779 316L210.867 313.488H205.827L204.915 316H203.331L207.507 304.8H209.187L213.363 316H211.779ZM206.339 312.096H210.355L208.339 306.576L206.339 312.096ZM223.59 314.512C222.47 315.643 221.099 316.208 219.478 316.208C217.857 316.208 216.486 315.643 215.366 314.512C214.246 313.381 213.686 312.011 213.686 310.4C213.686 308.779 214.246 307.408 215.366 306.288C216.486 305.157 217.857 304.592 219.478 304.592C221.099 304.592 222.47 305.157 223.59 306.288C224.721 307.408 225.286 308.779 225.286 310.4C225.286 312.011 224.721 313.381 223.59 314.512ZM216.39 313.504C217.222 314.336 218.251 314.752 219.478 314.752C220.705 314.752 221.729 314.336 222.55 313.504C223.382 312.661 223.798 311.627 223.798 310.4C223.798 309.163 223.382 308.128 222.55 307.296C221.729 306.453 220.705 306.032 219.478 306.032C218.251 306.032 217.222 306.453 216.39 307.296C215.569 308.128 215.158 309.163 215.158 310.4C215.158 311.627 215.569 312.661 216.39 313.504Z" fill="#150B4D"/>
<rect x="1.5" y="89.8867" width="415" height="289" rx="21" stroke="url(#paint1_linear_6940_43931)" stroke-width="2" stroke-dasharray="6 6"/>
<rect x="1.5" y="89.8867" width="415" height="289" rx="21" stroke="white" stroke-opacity="0.56" stroke-width="2" stroke-dasharray="6 6"/>
<path d="M108.665 72.0217C119.574 65.7236 133.014 65.7236 143.923 72.0217C154.831 78.3199 161.551 89.9594 161.551 102.556C161.551 115.152 154.831 126.791 143.923 133.09C133.014 139.388 119.574 139.388 108.665 133.09C97.7564 126.791 91.0364 115.152 91.0364 102.556C91.0364 89.9594 97.7564 78.3199 108.665 72.0217Z" fill="#F5A284"/>
<path d="M99.9223 146.648C100.2 144.609 102.078 143.181 104.117 143.459C106.156 143.737 107.584 145.615 107.306 147.654C107.028 149.693 105.15 151.12 103.111 150.843C101.072 150.565 99.6444 148.687 99.9223 146.648Z" fill="#7DD7BE"/>
<g filter="url(#filter1_f_6940_43931)">
<path d="M204 42.6524C207.095 40.866 210.906 40.866 214 42.6524L283.729 82.9104C286.823 84.6967 288.729 87.998 288.729 91.5706V172.087C288.729 175.659 286.823 178.961 283.729 180.747L214 221.005C210.906 222.791 207.094 222.791 204 221.005L134.272 180.747C131.178 178.961 129.272 175.659 129.272 172.087V91.5706C129.272 87.998 131.178 84.6967 134.272 82.9104L204 42.6524Z" fill="url(#paint2_linear_6940_43931)"/>
<path d="M204 42.6524C207.095 40.866 210.906 40.866 214 42.6524L283.729 82.9104C286.823 84.6967 288.729 87.998 288.729 91.5706V172.087C288.729 175.659 286.823 178.961 283.729 180.747L214 221.005C210.906 222.791 207.094 222.791 204 221.005L134.272 180.747C131.178 178.961 129.272 175.659 129.272 172.087V91.5706C129.272 87.998 131.178 84.6967 134.272 82.9104L204 42.6524Z" fill="white" fill-opacity="0.56"/>
</g>
<path d="M203.998 59.9297C207.092 58.1434 210.904 58.1434 213.998 59.9297L268.766 91.55C271.86 93.3363 273.766 96.6376 273.766 100.21V163.451C273.766 167.023 271.86 170.325 268.766 172.111L213.998 203.731C210.904 205.518 207.092 205.518 203.998 203.731L149.231 172.111C146.137 170.325 144.231 167.023 144.231 163.451V100.21C144.231 96.6376 146.137 93.3363 149.231 91.55L203.998 59.9297Z" fill="#9F9EEE"/>
<path d="M203.998 59.9297C207.092 58.1434 210.904 58.1434 213.998 59.9297L268.766 91.55C271.86 93.3363 273.766 96.6376 273.766 100.21V163.451C273.766 167.023 271.86 170.325 268.766 172.111L213.998 203.731C210.904 205.518 207.092 205.518 203.998 203.731L149.231 172.111C146.137 170.325 144.231 167.023 144.231 163.451V100.21C144.231 96.6376 146.137 93.3363 149.231 91.55L203.998 59.9297Z" fill="black" fill-opacity="0.2"/>
<path d="M203.998 59.9297C207.092 58.1434 210.904 58.1434 213.998 59.9297L268.766 91.55C271.86 93.3363 273.766 96.6376 273.766 100.21V163.451C273.766 167.023 271.86 170.325 268.766 172.111L213.998 203.731C210.904 205.518 207.092 205.518 203.998 203.731L149.231 172.111C146.137 170.325 144.231 167.023 144.231 163.451V100.21C144.231 96.6376 146.137 93.3363 149.231 91.55L203.998 59.9297Z" fill="white"/>
<path d="M71.7948 99.4401C70.6825 98.7979 69.312 98.7979 68.1997 99.4401C67.0874 100.082 66.4022 101.269 66.4022 102.554C66.4022 103.838 67.0874 105.025 68.1997 105.667C69.312 106.309 70.6825 106.309 71.7948 105.667C72.9071 105.025 73.5923 103.838 73.5923 102.554C73.5923 101.269 72.9071 100.082 71.7948 99.4401Z" fill="#E089DD"/>
<path d="M199.747 30.4475C205.471 27.1428 212.523 27.1428 218.247 30.4475L292.172 73.1277C297.895 76.4324 301.422 82.5398 301.422 89.1492V174.51C301.422 181.119 297.895 187.226 292.172 190.531L218.247 233.211C212.523 236.516 205.471 236.516 199.747 233.211L125.823 190.531C120.099 187.226 116.573 181.119 116.573 174.51V89.1492C116.573 82.5398 120.099 76.4324 125.823 73.1277L199.747 30.4475Z" stroke="white" stroke-width="3"/>
<path d="M124.73 1.43991C124.108 1.08068 123.341 1.08068 122.719 1.43991C122.097 1.79915 121.714 2.46305 121.714 3.18153C121.714 3.90001 122.097 4.56391 122.719 4.92315C123.341 5.28238 124.108 5.28238 124.73 4.92315C125.352 4.56391 125.736 3.90001 125.736 3.18153C125.736 2.46305 125.352 1.79915 124.73 1.43991Z" fill="#F49F88"/>
<path d="M104.87 39.784C106.869 36.7405 110.957 35.894 114.001 37.8932C117.044 39.8925 117.891 43.9805 115.892 47.024C113.892 50.0675 109.804 50.914 106.761 48.9148C103.717 46.9155 102.871 42.8275 104.87 39.784Z" fill="#7DD7BE"/>
<path d="M137.539 39.3384C136.917 38.9791 136.15 38.9791 135.528 39.3384C134.906 39.6976 134.522 40.3615 134.522 41.08C134.522 41.7984 134.906 42.4623 135.528 42.8216C136.15 43.1808 136.917 43.1808 137.539 42.8216C138.161 42.4623 138.544 41.7984 138.544 41.08C138.544 40.3615 138.161 39.6976 137.539 39.3384Z" fill="#D38CE7"/>
<path d="M187.048 8.12843C184.235 6.50437 180.769 6.50437 177.956 8.12843C175.143 9.7525 173.41 12.7539 173.41 16.002C173.41 19.2501 175.143 22.2515 177.956 23.8756C180.769 25.4997 184.235 25.4997 187.048 23.8756C189.861 22.2515 191.594 19.2501 191.594 16.002C191.594 12.7539 189.861 9.7525 187.048 8.12843Z" fill="#E089DD"/>
<path d="M268.703 46.1118C268.081 45.7526 267.314 45.7526 266.692 46.1118C266.07 46.471 265.686 47.1349 265.686 47.8534C265.686 48.5719 266.07 49.2358 266.692 49.595C267.314 49.9543 268.081 49.9543 268.703 49.595C269.325 49.2358 269.708 48.5719 269.708 47.8534C269.708 47.1349 269.325 46.471 268.703 46.1118Z" fill="#80D5C1"/>
<path d="M166.347 36.1153C164.885 33.5583 161.627 32.6704 159.071 34.1321C156.514 35.5937 155.626 38.8514 157.087 41.4084C158.549 43.9653 161.807 44.8532 164.364 43.3916C166.921 41.9299 167.808 38.6722 166.347 36.1153Z" fill="#F5A183"/>
<defs>
<filter id="filter0_f_6940_43931" x="104.273" y="15.3086" width="209.457" height="231.031" filterUnits="userSpaceOnUse" color-interpolation-filters="sRGB">
<feFlood flood-opacity="0" result="BackgroundImageFix"/>
<feBlend mode="normal" in="SourceGraphic" in2="BackgroundImageFix" result="shape"/>
<feGaussianBlur stdDeviation="12.5" result="effect1_foregroundBlur_6940_43931"/>
</filter>
<filter id="filter1_f_6940_43931" x="104.273" y="16.3125" width="209.457" height="231.031" filterUnits="userSpaceOnUse" color-interpolation-filters="sRGB">
<feFlood flood-opacity="0" result="BackgroundImageFix"/>
<feBlend mode="normal" in="SourceGraphic" in2="BackgroundImageFix" result="shape"/>
<feGaussianBlur stdDeviation="12.5" result="effect1_foregroundBlur_6940_43931"/>
</filter>
<linearGradient id="paint0_linear_6940_43931" x1="109.572" y1="-26.7338" x2="402.564" y2="97.3371" gradientUnits="userSpaceOnUse">
<stop stop-color="#5755FF"/>
<stop offset="1" stop-color="#FF8AA6"/>
</linearGradient>
<linearGradient id="paint1_linear_6940_43931" x1="-14.02" y1="-11.2022" x2="551.148" y2="333.196" gradientUnits="userSpaceOnUse">
<stop stop-color="#5755FF"/>
<stop offset="1" stop-color="#FF8AA6"/>
</linearGradient>
<linearGradient id="paint2_linear_6940_43931" x1="109.572" y1="-25.7299" x2="402.564" y2="98.341" gradientUnits="userSpaceOnUse">
<stop stop-color="#5755FF"/>
<stop offset="1" stop-color="#FF8AA6"/>
</linearGradient>
</defs>
</svg>
