<svg width="418" height="380" viewBox="0 0 418 380" fill="none" xmlns="http://www.w3.org/2000/svg">
<rect x="1.5" y="89.8867" width="415" height="289" rx="21" fill="white"/>
<g filter="url(#filter0_f_6940_43949)">
<path d="M198.063 41.6485C201.157 39.8621 204.969 39.8621 208.063 41.6485L277.792 81.9065C280.886 83.6928 282.792 86.9941 282.792 90.5667V171.083C282.792 174.655 280.886 177.957 277.792 179.743L208.063 220.001C204.969 221.787 201.157 221.787 198.063 220.001L128.334 179.743C125.24 177.957 123.334 174.655 123.334 171.083V90.5667C123.334 86.9941 125.24 83.6928 128.334 81.9065L198.063 41.6485Z" fill="url(#paint0_linear_6940_43949)"/>
<path d="M198.063 41.6485C201.157 39.8621 204.969 39.8621 208.063 41.6485L277.792 81.9065C280.886 83.6928 282.792 86.9941 282.792 90.5667V171.083C282.792 174.655 280.886 177.957 277.792 179.743L208.063 220.001C204.969 221.787 201.157 221.787 198.063 220.001L128.334 179.743C125.24 177.957 123.334 174.655 123.334 171.083V90.5667C123.334 86.9941 125.24 83.6928 128.334 81.9065L198.063 41.6485Z" fill="white" fill-opacity="0.56"/>
</g>
<path d="M79.3546 294L75.3546 282.8H76.9546L80.2026 292.144L83.4346 282.8H85.0506L81.0346 294H79.3546ZM86.2429 290.64C86.3816 291.355 86.7069 291.909 87.2189 292.304C87.7416 292.699 88.3816 292.896 89.1389 292.896C90.1949 292.896 90.9629 292.507 91.4429 291.728L92.6269 292.4C91.8483 293.605 90.6749 294.208 89.1069 294.208C87.8376 294.208 86.8029 293.813 86.0029 293.024C85.2136 292.224 84.8189 291.216 84.8189 290C84.8189 288.795 85.2083 287.792 85.9869 286.992C86.7656 286.192 87.7736 285.792 89.0109 285.792C90.1843 285.792 91.1389 286.208 91.8749 287.04C92.6216 287.861 92.9949 288.853 92.9949 290.016C92.9949 290.219 92.9789 290.427 92.9469 290.64H86.2429ZM89.0109 287.104C88.2643 287.104 87.6456 287.317 87.1549 287.744C86.6643 288.16 86.3603 288.72 86.2429 289.424H91.5869C91.4696 288.667 91.1709 288.091 90.6909 287.696C90.2109 287.301 89.6509 287.104 89.0109 287.104ZM95.9871 287.344C96.4457 286.352 97.2777 285.856 98.4831 285.856V287.312C97.8004 287.28 97.2137 287.461 96.7231 287.856C96.2324 288.251 95.9871 288.885 95.9871 289.76V294H94.5951V286H95.9871V287.344ZM100.549 284.544C100.282 284.544 100.058 284.453 99.8771 284.272C99.6957 284.091 99.6051 283.872 99.6051 283.616C99.6051 283.36 99.6957 283.141 99.8771 282.96C100.058 282.768 100.282 282.672 100.549 282.672C100.805 282.672 101.024 282.768 101.205 282.96C101.386 283.141 101.477 283.36 101.477 283.616C101.477 283.872 101.386 284.091 101.205 284.272C101.024 284.453 100.805 284.544 100.549 284.544ZM99.8451 294V286H101.237V294H99.8451ZM107.473 283.936C106.065 283.819 105.361 284.427 105.361 285.76V286H107.473V287.344H105.361V294H103.969V287.344H102.689V286H103.969V285.76C103.969 284.683 104.267 283.867 104.865 283.312C105.473 282.757 106.342 282.517 107.473 282.592V283.936ZM114.429 286H115.917L112.653 294.496C112.312 295.403 111.832 296.091 111.213 296.56C110.605 297.04 109.901 297.253 109.101 297.2V295.904C110.082 295.979 110.802 295.435 111.261 294.272L111.405 293.968L107.917 286H109.405L112.125 292.272L114.429 286ZM124.839 294.208C123.794 294.208 122.898 293.963 122.151 293.472C121.415 292.981 120.898 292.309 120.599 291.456L121.879 290.72C122.317 292.075 123.314 292.752 124.871 292.752C125.639 292.752 126.226 292.597 126.631 292.288C127.037 291.968 127.239 291.547 127.239 291.024C127.239 290.491 127.037 290.091 126.631 289.824C126.226 289.557 125.549 289.275 124.599 288.976C124.13 288.827 123.773 288.709 123.527 288.624C123.282 288.528 122.973 288.389 122.599 288.208C122.237 288.016 121.965 287.824 121.783 287.632C121.602 287.429 121.437 287.168 121.287 286.848C121.149 286.528 121.079 286.165 121.079 285.76C121.079 284.789 121.421 284.021 122.103 283.456C122.786 282.88 123.618 282.592 124.599 282.592C125.485 282.592 126.253 282.816 126.903 283.264C127.565 283.712 128.061 284.304 128.391 285.04L127.143 285.76C126.663 284.608 125.815 284.032 124.599 284.032C123.991 284.032 123.501 284.181 123.127 284.48C122.754 284.779 122.567 285.184 122.567 285.696C122.567 286.187 122.743 286.56 123.095 286.816C123.447 287.072 124.055 287.339 124.919 287.616C125.229 287.712 125.447 287.781 125.575 287.824C125.703 287.867 125.901 287.941 126.167 288.048C126.445 288.155 126.647 288.24 126.775 288.304C126.903 288.368 127.074 288.459 127.287 288.576C127.511 288.693 127.677 288.805 127.783 288.912C127.89 289.019 128.013 289.152 128.151 289.312C128.301 289.461 128.407 289.616 128.471 289.776C128.535 289.936 128.589 290.123 128.631 290.336C128.685 290.539 128.711 290.757 128.711 290.992C128.711 291.973 128.354 292.757 127.639 293.344C126.925 293.92 125.991 294.208 124.839 294.208ZM136.795 288.192C137.307 288.437 137.713 288.789 138.011 289.248C138.321 289.707 138.475 290.235 138.475 290.832C138.475 291.728 138.161 292.48 137.531 293.088C136.902 293.696 136.134 294 135.227 294H130.395V282.8H134.875C135.75 282.8 136.491 283.093 137.099 283.68C137.707 284.267 138.011 284.992 138.011 285.856C138.011 286.848 137.606 287.627 136.795 288.192ZM134.875 284.192H131.883V287.616H134.875C135.345 287.616 135.739 287.451 136.059 287.12C136.379 286.789 136.539 286.384 136.539 285.904C136.539 285.435 136.374 285.035 136.043 284.704C135.723 284.363 135.334 284.192 134.875 284.192ZM135.227 292.608C135.729 292.608 136.15 292.432 136.491 292.08C136.833 291.728 137.003 291.296 137.003 290.784C137.003 290.283 136.827 289.856 136.475 289.504C136.134 289.152 135.718 288.976 135.227 288.976H131.883V292.608H135.227ZM147.095 282.8V284.208H143.783V294H142.311V284.208H139.015V282.8H147.095ZM156.775 287.344H154.647V291.68C154.647 292.075 154.722 292.357 154.871 292.528C155.031 292.688 155.271 292.773 155.591 292.784C155.911 292.784 156.306 292.773 156.775 292.752V294C155.559 294.16 154.669 294.064 154.103 293.712C153.538 293.349 153.255 292.672 153.255 291.68V287.344H151.671V286H153.255V284.176L154.647 283.76V286H156.775V287.344ZM164.769 292.992C163.948 293.803 162.95 294.208 161.777 294.208C160.604 294.208 159.606 293.803 158.785 292.992C157.974 292.181 157.569 291.184 157.569 290C157.569 288.816 157.974 287.819 158.785 287.008C159.606 286.197 160.604 285.792 161.777 285.792C162.95 285.792 163.948 286.197 164.769 287.008C165.59 287.819 166.001 288.816 166.001 290C166.001 291.184 165.59 292.181 164.769 292.992ZM161.777 292.848C162.577 292.848 163.249 292.576 163.793 292.032C164.337 291.488 164.609 290.811 164.609 290C164.609 289.189 164.337 288.512 163.793 287.968C163.249 287.424 162.577 287.152 161.777 287.152C160.988 287.152 160.321 287.424 159.777 287.968C159.233 288.512 158.961 289.189 158.961 290C158.961 290.811 159.233 291.488 159.777 292.032C160.321 292.576 160.988 292.848 161.777 292.848ZM172.618 290.64C172.757 291.355 173.082 291.909 173.594 292.304C174.117 292.699 174.757 292.896 175.514 292.896C176.57 292.896 177.338 292.507 177.818 291.728L179.002 292.4C178.223 293.605 177.05 294.208 175.482 294.208C174.213 294.208 173.178 293.813 172.378 293.024C171.589 292.224 171.194 291.216 171.194 290C171.194 288.795 171.583 287.792 172.362 286.992C173.141 286.192 174.149 285.792 175.386 285.792C176.559 285.792 177.514 286.208 178.25 287.04C178.997 287.861 179.37 288.853 179.37 290.016C179.37 290.219 179.354 290.427 179.322 290.64H172.618ZM175.386 287.104C174.639 287.104 174.021 287.317 173.53 287.744C173.039 288.16 172.735 288.72 172.618 289.424H177.962C177.845 288.667 177.546 288.091 177.066 287.696C176.586 287.301 176.026 287.104 175.386 287.104ZM184.954 285.792C185.893 285.792 186.645 286.091 187.21 286.688C187.775 287.275 188.058 288.075 188.058 289.088V294H186.666V289.168C186.666 288.517 186.49 288.016 186.138 287.664C185.786 287.301 185.301 287.12 184.682 287.12C183.989 287.12 183.429 287.339 183.002 287.776C182.575 288.203 182.362 288.864 182.362 289.76V294H180.97V286H182.362V287.152C182.927 286.245 183.791 285.792 184.954 285.792ZM191.201 288.16C191.201 288.469 191.356 288.72 191.665 288.912C191.975 289.093 192.348 289.243 192.785 289.36C193.223 289.467 193.66 289.595 194.097 289.744C194.535 289.883 194.908 290.128 195.217 290.48C195.527 290.821 195.681 291.264 195.681 291.808C195.681 292.533 195.399 293.115 194.833 293.552C194.279 293.989 193.564 294.208 192.689 294.208C191.911 294.208 191.244 294.037 190.689 293.696C190.135 293.355 189.74 292.901 189.505 292.336L190.705 291.648C190.833 292.032 191.073 292.336 191.425 292.56C191.777 292.784 192.199 292.896 192.689 292.896C193.148 292.896 193.527 292.811 193.825 292.64C194.124 292.459 194.273 292.181 194.273 291.808C194.273 291.499 194.119 291.253 193.809 291.072C193.5 290.88 193.127 290.731 192.689 290.624C192.252 290.507 191.815 290.373 191.377 290.224C190.94 290.075 190.567 289.829 190.257 289.488C189.948 289.147 189.793 288.709 189.793 288.176C189.793 287.483 190.06 286.912 190.593 286.464C191.137 286.016 191.815 285.792 192.625 285.792C193.276 285.792 193.852 285.941 194.353 286.24C194.865 286.528 195.249 286.933 195.505 287.456L194.337 288.112C194.049 287.429 193.479 287.088 192.625 287.088C192.231 287.088 191.895 287.184 191.617 287.376C191.34 287.557 191.201 287.819 191.201 288.16ZM202.771 286H204.163V294H202.771V292.848C202.206 293.755 201.342 294.208 200.179 294.208C199.241 294.208 198.489 293.915 197.923 293.328C197.358 292.731 197.075 291.925 197.075 290.912V286H198.467V290.832C198.467 291.483 198.643 291.989 198.995 292.352C199.347 292.704 199.833 292.88 200.451 292.88C201.145 292.88 201.705 292.667 202.131 292.24C202.558 291.803 202.771 291.136 202.771 290.24V286ZM207.675 287.344C208.133 286.352 208.965 285.856 210.171 285.856V287.312C209.488 287.28 208.901 287.461 208.411 287.856C207.92 288.251 207.675 288.885 207.675 289.76V294H206.283V286H207.675V287.344ZM212.071 290.64C212.21 291.355 212.535 291.909 213.047 292.304C213.57 292.699 214.21 292.896 214.967 292.896C216.023 292.896 216.791 292.507 217.271 291.728L218.455 292.4C217.676 293.605 216.503 294.208 214.935 294.208C213.666 294.208 212.631 293.813 211.831 293.024C211.042 292.224 210.647 291.216 210.647 290C210.647 288.795 211.036 287.792 211.815 286.992C212.594 286.192 213.602 285.792 214.839 285.792C216.012 285.792 216.967 286.208 217.703 287.04C218.45 287.861 218.823 288.853 218.823 290.016C218.823 290.219 218.807 290.427 218.775 290.64H212.071ZM214.839 287.104C214.092 287.104 213.474 287.317 212.983 287.744C212.492 288.16 212.188 288.72 212.071 289.424H217.415C217.298 288.667 216.999 288.091 216.519 287.696C216.039 287.301 215.479 287.104 214.839 287.104ZM228.839 285.792C229.959 285.792 230.914 286.203 231.703 287.024C232.493 287.835 232.887 288.827 232.887 290C232.887 291.173 232.493 292.171 231.703 292.992C230.914 293.803 229.959 294.208 228.839 294.208C227.517 294.208 226.509 293.68 225.815 292.624V297.2H224.423V286H225.815V287.376C226.509 286.32 227.517 285.792 228.839 285.792ZM228.663 292.864C229.463 292.864 230.135 292.592 230.679 292.048C231.223 291.493 231.495 290.811 231.495 290C231.495 289.189 231.223 288.512 230.679 287.968C230.135 287.413 229.463 287.136 228.663 287.136C227.853 287.136 227.175 287.413 226.631 287.968C226.087 288.512 225.815 289.189 225.815 290C225.815 290.811 226.087 291.493 226.631 292.048C227.175 292.592 227.853 292.864 228.663 292.864ZM235.524 290.64C235.663 291.355 235.988 291.909 236.5 292.304C237.023 292.699 237.663 292.896 238.42 292.896C239.476 292.896 240.244 292.507 240.724 291.728L241.908 292.4C241.13 293.605 239.956 294.208 238.388 294.208C237.119 294.208 236.084 293.813 235.284 293.024C234.495 292.224 234.1 291.216 234.1 290C234.1 288.795 234.49 287.792 235.268 286.992C236.047 286.192 237.055 285.792 238.292 285.792C239.466 285.792 240.42 286.208 241.156 287.04C241.903 287.861 242.276 288.853 242.276 290.016C242.276 290.219 242.26 290.427 242.228 290.64H235.524ZM238.292 287.104C237.546 287.104 236.927 287.317 236.436 287.744C235.946 288.16 235.642 288.72 235.524 289.424H240.868C240.751 288.667 240.452 288.091 239.972 287.696C239.492 287.301 238.932 287.104 238.292 287.104ZM245.268 287.344C245.727 286.352 246.559 285.856 247.764 285.856V287.312C247.082 287.28 246.495 287.461 246.004 287.856C245.514 288.251 245.268 288.885 245.268 289.76V294H243.876V286H245.268V287.344ZM250.029 288.16C250.029 288.469 250.184 288.72 250.493 288.912C250.803 289.093 251.176 289.243 251.613 289.36C252.051 289.467 252.488 289.595 252.925 289.744C253.363 289.883 253.736 290.128 254.045 290.48C254.355 290.821 254.509 291.264 254.509 291.808C254.509 292.533 254.227 293.115 253.661 293.552C253.107 293.989 252.392 294.208 251.517 294.208C250.739 294.208 250.072 294.037 249.517 293.696C248.963 293.355 248.568 292.901 248.333 292.336L249.533 291.648C249.661 292.032 249.901 292.336 250.253 292.56C250.605 292.784 251.027 292.896 251.517 292.896C251.976 292.896 252.355 292.811 252.653 292.64C252.952 292.459 253.101 292.181 253.101 291.808C253.101 291.499 252.947 291.253 252.637 291.072C252.328 290.88 251.955 290.731 251.517 290.624C251.08 290.507 250.643 290.373 250.205 290.224C249.768 290.075 249.395 289.829 249.085 289.488C248.776 289.147 248.621 288.709 248.621 288.176C248.621 287.483 248.888 286.912 249.421 286.464C249.965 286.016 250.643 285.792 251.453 285.792C252.104 285.792 252.68 285.941 253.181 286.24C253.693 286.528 254.077 286.933 254.333 287.456L253.165 288.112C252.877 287.429 252.307 287.088 251.453 287.088C251.059 287.088 250.723 287.184 250.445 287.376C250.168 287.557 250.029 287.819 250.029 288.16ZM262.691 292.992C261.869 293.803 260.872 294.208 259.699 294.208C258.525 294.208 257.528 293.803 256.707 292.992C255.896 292.181 255.491 291.184 255.491 290C255.491 288.816 255.896 287.819 256.707 287.008C257.528 286.197 258.525 285.792 259.699 285.792C260.872 285.792 261.869 286.197 262.691 287.008C263.512 287.819 263.923 288.816 263.923 290C263.923 291.184 263.512 292.181 262.691 292.992ZM259.699 292.848C260.499 292.848 261.171 292.576 261.715 292.032C262.259 291.488 262.531 290.811 262.531 290C262.531 289.189 262.259 288.512 261.715 287.968C261.171 287.424 260.499 287.152 259.699 287.152C258.909 287.152 258.243 287.424 257.699 287.968C257.155 288.512 256.883 289.189 256.883 290C256.883 290.811 257.155 291.488 257.699 292.032C258.243 292.576 258.909 292.848 259.699 292.848ZM269.548 285.792C270.486 285.792 271.238 286.091 271.804 286.688C272.369 287.275 272.652 288.075 272.652 289.088V294H271.26V289.168C271.26 288.517 271.084 288.016 270.732 287.664C270.38 287.301 269.894 287.12 269.276 287.12C268.582 287.12 268.022 287.339 267.596 287.776C267.169 288.203 266.956 288.864 266.956 289.76V294H265.564V286H266.956V287.152C267.521 286.245 268.385 285.792 269.548 285.792ZM275.863 282.784L274.823 286.672H273.623L274.263 282.784H275.863ZM277.748 288.16C277.748 288.469 277.903 288.72 278.212 288.912C278.522 289.093 278.895 289.243 279.332 289.36C279.77 289.467 280.207 289.595 280.644 289.744C281.082 289.883 281.455 290.128 281.764 290.48C282.074 290.821 282.228 291.264 282.228 291.808C282.228 292.533 281.946 293.115 281.38 293.552C280.826 293.989 280.111 294.208 279.236 294.208C278.458 294.208 277.791 294.037 277.236 293.696C276.682 293.355 276.287 292.901 276.052 292.336L277.252 291.648C277.38 292.032 277.62 292.336 277.972 292.56C278.324 292.784 278.746 292.896 279.236 292.896C279.695 292.896 280.074 292.811 280.372 292.64C280.671 292.459 280.82 292.181 280.82 291.808C280.82 291.499 280.666 291.253 280.356 291.072C280.047 290.88 279.674 290.731 279.236 290.624C278.799 290.507 278.362 290.373 277.924 290.224C277.487 290.075 277.114 289.829 276.804 289.488C276.495 289.147 276.34 288.709 276.34 288.176C276.34 287.483 276.607 286.912 277.14 286.464C277.684 286.016 278.362 285.792 279.172 285.792C279.823 285.792 280.399 285.941 280.9 286.24C281.412 286.528 281.796 286.933 282.052 287.456L280.884 288.112C280.596 287.429 280.026 287.088 279.172 287.088C278.778 287.088 278.442 287.184 278.164 287.376C277.887 287.557 277.748 287.819 277.748 288.16ZM289.268 287.344C289.727 286.352 290.559 285.856 291.764 285.856V287.312C291.082 287.28 290.495 287.461 290.004 287.856C289.514 288.251 289.268 288.885 289.268 289.76V294H287.876V286H289.268V287.344ZM293.665 290.64C293.803 291.355 294.129 291.909 294.641 292.304C295.163 292.699 295.803 292.896 296.561 292.896C297.617 292.896 298.385 292.507 298.865 291.728L300.049 292.4C299.27 293.605 298.097 294.208 296.529 294.208C295.259 294.208 294.225 293.813 293.425 293.024C292.635 292.224 292.241 291.216 292.241 290C292.241 288.795 292.63 287.792 293.409 286.992C294.187 286.192 295.195 285.792 296.433 285.792C297.606 285.792 298.561 286.208 299.297 287.04C300.043 287.861 300.417 288.853 300.417 290.016C300.417 290.219 300.401 290.427 300.369 290.64H293.665ZM296.433 287.104C295.686 287.104 295.067 287.317 294.577 287.744C294.086 288.16 293.782 288.72 293.665 289.424H299.009C298.891 288.667 298.593 288.091 298.113 287.696C297.633 287.301 297.073 287.104 296.433 287.104ZM302.017 294V282.32H303.409V294H302.017ZM312.157 286H313.549V294H312.157V292.624C311.463 293.68 310.455 294.208 309.133 294.208C308.013 294.208 307.058 293.803 306.269 292.992C305.479 292.171 305.085 291.173 305.085 290C305.085 288.827 305.479 287.835 306.269 287.024C307.058 286.203 308.013 285.792 309.133 285.792C310.455 285.792 311.463 286.32 312.157 287.376V286ZM309.309 292.864C310.119 292.864 310.797 292.592 311.341 292.048C311.885 291.493 312.157 290.811 312.157 290C312.157 289.189 311.885 288.512 311.341 287.968C310.797 287.413 310.119 287.136 309.309 287.136C308.509 287.136 307.837 287.413 307.293 287.968C306.749 288.512 306.477 289.189 306.477 290C306.477 290.811 306.749 291.493 307.293 292.048C307.837 292.592 308.509 292.864 309.309 292.864ZM320.01 287.344H317.882V291.68C317.882 292.075 317.956 292.357 318.106 292.528C318.266 292.688 318.506 292.773 318.826 292.784C319.146 292.784 319.54 292.773 320.01 292.752V294C318.794 294.16 317.903 294.064 317.338 293.712C316.772 293.349 316.49 292.672 316.49 291.68V287.344H314.906V286H316.49V284.176L317.882 283.76V286H320.01V287.344ZM322.362 284.544C322.095 284.544 321.871 284.453 321.69 284.272C321.508 284.091 321.418 283.872 321.418 283.616C321.418 283.36 321.508 283.141 321.69 282.96C321.871 282.768 322.095 282.672 322.362 282.672C322.618 282.672 322.836 282.768 323.018 282.96C323.199 283.141 323.29 283.36 323.29 283.616C323.29 283.872 323.199 284.091 323.018 284.272C322.836 284.453 322.618 284.544 322.362 284.544ZM321.658 294V286H323.05V294H321.658ZM331.925 292.992C331.104 293.803 330.107 294.208 328.933 294.208C327.76 294.208 326.763 293.803 325.941 292.992C325.131 292.181 324.725 291.184 324.725 290C324.725 288.816 325.131 287.819 325.941 287.008C326.763 286.197 327.76 285.792 328.933 285.792C330.107 285.792 331.104 286.197 331.925 287.008C332.747 287.819 333.157 288.816 333.157 290C333.157 291.184 332.747 292.181 331.925 292.992ZM328.933 292.848C329.733 292.848 330.405 292.576 330.949 292.032C331.493 291.488 331.765 290.811 331.765 290C331.765 289.189 331.493 288.512 330.949 287.968C330.405 287.424 329.733 287.152 328.933 287.152C328.144 287.152 327.477 287.424 326.933 287.968C326.389 288.512 326.117 289.189 326.117 290C326.117 290.811 326.389 291.488 326.933 292.032C327.477 292.576 328.144 292.848 328.933 292.848ZM338.782 285.792C339.721 285.792 340.473 286.091 341.038 286.688C341.604 287.275 341.886 288.075 341.886 289.088V294H340.494V289.168C340.494 288.517 340.318 288.016 339.966 287.664C339.614 287.301 339.129 287.12 338.51 287.12C337.817 287.12 337.257 287.339 336.83 287.776C336.404 288.203 336.19 288.864 336.19 289.76V294H334.798V286H336.19V287.152C336.756 286.245 337.62 285.792 338.782 285.792ZM149.924 309.344H147.796V313.68C147.796 314.075 147.87 314.357 148.02 314.528C148.18 314.688 148.42 314.773 148.74 314.784C149.06 314.784 149.454 314.773 149.924 314.752V316C148.708 316.16 147.817 316.064 147.252 315.712C146.686 315.349 146.404 314.672 146.404 313.68V309.344H144.82V308H146.404V306.176L147.796 305.76V308H149.924V309.344ZM157.917 314.992C157.096 315.803 156.099 316.208 154.925 316.208C153.752 316.208 152.755 315.803 151.933 314.992C151.123 314.181 150.717 313.184 150.717 312C150.717 310.816 151.123 309.819 151.933 309.008C152.755 308.197 153.752 307.792 154.925 307.792C156.099 307.792 157.096 308.197 157.917 309.008C158.739 309.819 159.149 310.816 159.149 312C159.149 313.184 158.739 314.181 157.917 314.992ZM154.925 314.848C155.725 314.848 156.397 314.576 156.941 314.032C157.485 313.488 157.757 312.811 157.757 312C157.757 311.189 157.485 310.512 156.941 309.968C156.397 309.424 155.725 309.152 154.925 309.152C154.136 309.152 153.469 309.424 152.925 309.968C152.381 310.512 152.109 311.189 152.109 312C152.109 312.811 152.381 313.488 152.925 314.032C153.469 314.576 154.136 314.848 154.925 314.848ZM169.142 309.344H167.014V313.68C167.014 314.075 167.089 314.357 167.238 314.528C167.398 314.688 167.638 314.773 167.958 314.784C168.278 314.784 168.673 314.773 169.142 314.752V316C167.926 316.16 167.036 316.064 166.47 315.712C165.905 315.349 165.622 314.672 165.622 313.68V309.344H164.038V308H165.622V306.176L167.014 305.76V308H169.142V309.344ZM174.774 307.792C175.713 307.792 176.465 308.091 177.03 308.688C177.596 309.275 177.878 310.075 177.878 311.088V316H176.486V311.168C176.486 310.517 176.31 310.016 175.958 309.664C175.606 309.301 175.121 309.12 174.502 309.12C173.809 309.12 173.249 309.339 172.822 309.776C172.396 310.203 172.182 310.864 172.182 311.76V316H170.79V304.8H172.182V309.152C172.748 308.245 173.612 307.792 174.774 307.792ZM180.798 312.64C180.936 313.355 181.262 313.909 181.774 314.304C182.296 314.699 182.936 314.896 183.694 314.896C184.75 314.896 185.518 314.507 185.998 313.728L187.182 314.4C186.403 315.605 185.23 316.208 183.662 316.208C182.392 316.208 181.358 315.813 180.558 315.024C179.768 314.224 179.374 313.216 179.374 312C179.374 310.795 179.763 309.792 180.542 308.992C181.32 308.192 182.328 307.792 183.566 307.792C184.739 307.792 185.694 308.208 186.43 309.04C187.176 309.861 187.55 310.853 187.55 312.016C187.55 312.219 187.534 312.427 187.502 312.64H180.798ZM183.566 309.104C182.819 309.104 182.2 309.317 181.71 309.744C181.219 310.16 180.915 310.72 180.798 311.424H186.142C186.024 310.667 185.726 310.091 185.246 309.696C184.766 309.301 184.206 309.104 183.566 309.104ZM196.91 316.208C195.704 316.208 194.702 315.808 193.902 315.008C193.102 314.197 192.702 313.195 192.702 312C192.702 310.805 193.102 309.808 193.902 309.008C194.702 308.197 195.704 307.792 196.91 307.792C197.699 307.792 198.408 307.984 199.038 308.368C199.667 308.741 200.136 309.248 200.446 309.888L199.278 310.56C199.075 310.133 198.76 309.792 198.334 309.536C197.918 309.28 197.443 309.152 196.91 309.152C196.11 309.152 195.438 309.424 194.894 309.968C194.36 310.512 194.094 311.189 194.094 312C194.094 312.8 194.36 313.472 194.894 314.016C195.438 314.56 196.11 314.832 196.91 314.832C197.443 314.832 197.923 314.709 198.35 314.464C198.776 314.208 199.102 313.867 199.326 313.44L200.51 314.128C200.168 314.757 199.678 315.264 199.038 315.648C198.398 316.021 197.688 316.208 196.91 316.208ZM208.527 314.992C207.705 315.803 206.708 316.208 205.535 316.208C204.361 316.208 203.364 315.803 202.543 314.992C201.732 314.181 201.327 313.184 201.327 312C201.327 310.816 201.732 309.819 202.543 309.008C203.364 308.197 204.361 307.792 205.535 307.792C206.708 307.792 207.705 308.197 208.527 309.008C209.348 309.819 209.759 310.816 209.759 312C209.759 313.184 209.348 314.181 208.527 314.992ZM205.535 314.848C206.335 314.848 207.007 314.576 207.551 314.032C208.095 313.488 208.367 312.811 208.367 312C208.367 311.189 208.095 310.512 207.551 309.968C207.007 309.424 206.335 309.152 205.535 309.152C204.745 309.152 204.079 309.424 203.535 309.968C202.991 310.512 202.719 311.189 202.719 312C202.719 312.811 202.991 313.488 203.535 314.032C204.079 314.576 204.745 314.848 205.535 314.848ZM220.04 307.792C220.936 307.792 221.661 308.085 222.216 308.672C222.77 309.248 223.048 310.032 223.048 311.024V316H221.656V311.072C221.656 310.453 221.496 309.973 221.176 309.632C220.856 309.291 220.429 309.12 219.896 309.12C219.298 309.12 218.818 309.323 218.456 309.728C218.104 310.123 217.928 310.731 217.928 311.552V316H216.536V311.072C216.536 310.453 216.381 309.973 216.072 309.632C215.773 309.291 215.362 309.12 214.84 309.12C214.253 309.12 213.762 309.323 213.368 309.728C212.984 310.133 212.792 310.741 212.792 311.552V316H211.4V308H212.792V309.072C213.336 308.219 214.13 307.792 215.176 307.792C216.253 307.792 217.037 308.245 217.528 309.152C218.082 308.245 218.92 307.792 220.04 307.792ZM233.618 307.792C234.514 307.792 235.239 308.085 235.794 308.672C236.349 309.248 236.626 310.032 236.626 311.024V316H235.234V311.072C235.234 310.453 235.074 309.973 234.754 309.632C234.434 309.291 234.007 309.12 233.474 309.12C232.877 309.12 232.397 309.323 232.034 309.728C231.682 310.123 231.506 310.731 231.506 311.552V316H230.114V311.072C230.114 310.453 229.959 309.973 229.65 309.632C229.351 309.291 228.941 309.12 228.418 309.12C227.831 309.12 227.341 309.323 226.946 309.728C226.562 310.133 226.37 310.741 226.37 311.552V316H224.978V308H226.37V309.072C226.914 308.219 227.709 307.792 228.754 307.792C229.831 307.792 230.615 308.245 231.106 309.152C231.661 308.245 232.498 307.792 233.618 307.792ZM244.076 308H245.468V316H244.076V314.848C243.511 315.755 242.647 316.208 241.484 316.208C240.545 316.208 239.793 315.915 239.228 315.328C238.663 314.731 238.38 313.925 238.38 312.912V308H239.772V312.832C239.772 313.483 239.948 313.989 240.3 314.352C240.652 314.704 241.137 314.88 241.756 314.88C242.449 314.88 243.009 314.667 243.436 314.24C243.863 313.803 244.076 313.136 244.076 312.24V308ZM251.571 307.792C252.51 307.792 253.262 308.091 253.827 308.688C254.393 309.275 254.675 310.075 254.675 311.088V316H253.283V311.168C253.283 310.517 253.107 310.016 252.755 309.664C252.403 309.301 251.918 309.12 251.299 309.12C250.606 309.12 250.046 309.339 249.619 309.776C249.193 310.203 248.979 310.864 248.979 311.76V316H247.587V308H248.979V309.152C249.545 308.245 250.409 307.792 251.571 307.792ZM257.323 306.544C257.056 306.544 256.832 306.453 256.651 306.272C256.469 306.091 256.379 305.872 256.379 305.616C256.379 305.36 256.469 305.141 256.651 304.96C256.832 304.768 257.056 304.672 257.323 304.672C257.579 304.672 257.797 304.768 257.979 304.96C258.16 305.141 258.251 305.36 258.251 305.616C258.251 305.872 258.16 306.091 257.979 306.272C257.797 306.453 257.579 306.544 257.323 306.544ZM256.618 316V308H258.011V316H256.618ZM264.486 309.344H262.358V313.68C262.358 314.075 262.433 314.357 262.582 314.528C262.742 314.688 262.982 314.773 263.302 314.784C263.622 314.784 264.017 314.773 264.486 314.752V316C263.27 316.16 262.379 316.064 261.814 315.712C261.249 315.349 260.966 314.672 260.966 313.68V309.344H259.382V308H260.966V306.176L262.358 305.76V308H264.486V309.344ZM271.89 308H273.378L270.114 316.496C269.773 317.403 269.293 318.091 268.674 318.56C268.066 319.04 267.362 319.253 266.562 319.2V317.904C267.543 317.979 268.263 317.435 268.722 316.272L268.866 315.968L265.378 308H266.866L269.586 314.272L271.89 308Z" fill="#150B4D"/>
<rect x="1.5" y="89.8867" width="415" height="289" rx="21" stroke="url(#paint1_linear_6940_43949)" stroke-width="2" stroke-dasharray="6 6"/>
<rect x="1.5" y="89.8867" width="415" height="289" rx="21" stroke="white" stroke-opacity="0.56" stroke-width="2" stroke-dasharray="6 6"/>
<path d="M108.665 72.0217C119.574 65.7236 133.014 65.7236 143.923 72.0217C154.831 78.3199 161.551 89.9594 161.551 102.556C161.551 115.152 154.831 126.791 143.923 133.09C133.014 139.388 119.574 139.388 108.665 133.09C97.7564 126.791 91.0364 115.152 91.0364 102.556C91.0364 89.9594 97.7564 78.3199 108.665 72.0217Z" fill="#E089DD"/>
<path d="M99.9223 146.648C100.2 144.609 102.078 143.181 104.117 143.459C106.156 143.737 107.584 145.615 107.306 147.654C107.028 149.693 105.15 151.12 103.111 150.843C101.072 150.565 99.6444 148.687 99.9223 146.648Z" fill="#F5A284"/>
<g filter="url(#filter1_f_6940_43949)">
<path d="M204 42.6524C207.095 40.866 210.906 40.866 214 42.6524L283.729 82.9104C286.823 84.6967 288.729 87.998 288.729 91.5706V172.087C288.729 175.659 286.823 178.961 283.729 180.747L214 221.005C210.906 222.791 207.094 222.791 204 221.005L134.272 180.747C131.178 178.961 129.272 175.659 129.272 172.087V91.5706C129.272 87.998 131.178 84.6967 134.272 82.9104L204 42.6524Z" fill="url(#paint2_linear_6940_43949)"/>
<path d="M204 42.6524C207.095 40.866 210.906 40.866 214 42.6524L283.729 82.9104C286.823 84.6967 288.729 87.998 288.729 91.5706V172.087C288.729 175.659 286.823 178.961 283.729 180.747L214 221.005C210.906 222.791 207.094 222.791 204 221.005L134.272 180.747C131.178 178.961 129.272 175.659 129.272 172.087V91.5706C129.272 87.998 131.178 84.6967 134.272 82.9104L204 42.6524Z" fill="white" fill-opacity="0.56"/>
</g>
<path d="M166.347 36.1153C164.885 33.5583 161.627 32.6704 159.071 34.1321C156.514 35.5937 155.626 38.8514 157.087 41.4084C158.549 43.9653 161.807 44.8532 164.364 43.3916C166.921 41.9299 167.808 38.6722 166.347 36.1153Z" fill="#7DD7BE"/>
<path d="M203.998 59.9297C207.092 58.1434 210.904 58.1434 213.998 59.9297L268.766 91.55C271.86 93.3363 273.766 96.6376 273.766 100.21V163.451C273.766 167.023 271.86 170.325 268.766 172.111L213.998 203.731C210.904 205.518 207.092 205.518 203.998 203.731L149.231 172.111C146.137 170.325 144.231 167.023 144.231 163.451V100.21C144.231 96.6376 146.137 93.3363 149.231 91.55L203.998 59.9297Z" fill="#9F9EEE"/>
<path d="M203.998 59.9297C207.092 58.1434 210.904 58.1434 213.998 59.9297L268.766 91.55C271.86 93.3363 273.766 96.6376 273.766 100.21V163.451C273.766 167.023 271.86 170.325 268.766 172.111L213.998 203.731C210.904 205.518 207.092 205.518 203.998 203.731L149.231 172.111C146.137 170.325 144.231 167.023 144.231 163.451V100.21C144.231 96.6376 146.137 93.3363 149.231 91.55L203.998 59.9297Z" fill="black" fill-opacity="0.2"/>
<path d="M203.998 59.9297C207.092 58.1434 210.904 58.1434 213.998 59.9297L268.766 91.55C271.86 93.3363 273.766 96.6376 273.766 100.21V163.451C273.766 167.023 271.86 170.325 268.766 172.111L213.998 203.731C210.904 205.518 207.092 205.518 203.998 203.731L149.231 172.111C146.137 170.325 144.231 167.023 144.231 163.451V100.21C144.231 96.6376 146.137 93.3363 149.231 91.55L203.998 59.9297Z" fill="white"/>
<path d="M71.7948 99.4401C70.6825 98.7979 69.312 98.7979 68.1997 99.4401C67.0874 100.082 66.4022 101.269 66.4022 102.554C66.4022 103.838 67.0874 105.025 68.1997 105.667C69.312 106.309 70.6825 106.309 71.7948 105.667C72.9071 105.025 73.5923 103.838 73.5923 102.554C73.5923 101.269 72.9071 100.082 71.7948 99.4401Z" fill="#E089DD"/>
<path d="M199.747 30.4475C205.471 27.1428 212.523 27.1428 218.247 30.4475L292.172 73.1277C297.895 76.4324 301.422 82.5398 301.422 89.1492V174.51C301.422 181.119 297.895 187.226 292.172 190.531L218.247 233.211C212.523 236.516 205.471 236.516 199.747 233.211L125.823 190.531C120.099 187.226 116.573 181.119 116.573 174.51V89.1492C116.573 82.5398 120.099 76.4324 125.823 73.1277L199.747 30.4475Z" stroke="white" stroke-width="3"/>
<path d="M124.73 1.43991C124.108 1.08068 123.341 1.08068 122.719 1.43991C122.097 1.79915 121.714 2.46305 121.714 3.18153C121.714 3.90001 122.097 4.56391 122.719 4.92315C123.341 5.28238 124.108 5.28238 124.73 4.92315C125.352 4.56391 125.736 3.90001 125.736 3.18153C125.736 2.46305 125.352 1.79915 124.73 1.43991Z" fill="#80D6BF"/>
<path d="M104.87 39.784C106.869 36.7405 110.957 35.894 114.001 37.8932C117.044 39.8925 117.891 43.9805 115.892 47.024C113.892 50.0675 109.804 50.914 106.761 48.9148C103.717 46.9155 102.871 42.8275 104.87 39.784Z" fill="#F4A285"/>
<path d="M137.539 39.3384C136.917 38.9791 136.15 38.9791 135.528 39.3384C134.906 39.6976 134.522 40.3615 134.522 41.08C134.522 41.7984 134.906 42.4623 135.528 42.8216C136.15 43.1808 136.917 43.1808 137.539 42.8216C138.161 42.4623 138.544 41.7984 138.544 41.08C138.544 40.3615 138.161 39.6976 137.539 39.3384Z" fill="#D38CE7"/>
<path d="M187.048 8.12843C184.235 6.50437 180.769 6.50437 177.956 8.12843C175.143 9.7525 173.41 12.7539 173.41 16.002C173.41 19.2501 175.143 22.2515 177.956 23.8756C180.769 25.4997 184.235 25.4997 187.048 23.8756C189.861 22.2515 191.594 19.2501 191.594 16.002C191.594 12.7539 189.861 9.7525 187.048 8.12843Z" fill="#F5A284"/>
<path d="M268.703 46.1118C268.081 45.7526 267.314 45.7526 266.692 46.1118C266.07 46.471 265.686 47.1349 265.686 47.8534C265.686 48.5719 266.07 49.2358 266.692 49.595C267.314 49.9543 268.081 49.9543 268.703 49.595C269.325 49.2358 269.708 48.5719 269.708 47.8534C269.708 47.1349 269.325 46.471 268.703 46.1118Z" fill="#E089DD"/>
<defs>
<filter id="filter0_f_6940_43949" x="98.3359" y="15.3086" width="209.457" height="231.031" filterUnits="userSpaceOnUse" color-interpolation-filters="sRGB">
<feFlood flood-opacity="0" result="BackgroundImageFix"/>
<feBlend mode="normal" in="SourceGraphic" in2="BackgroundImageFix" result="shape"/>
<feGaussianBlur stdDeviation="12.5" result="effect1_foregroundBlur_6940_43949"/>
</filter>
<filter id="filter1_f_6940_43949" x="104.273" y="16.3125" width="209.457" height="231.031" filterUnits="userSpaceOnUse" color-interpolation-filters="sRGB">
<feFlood flood-opacity="0" result="BackgroundImageFix"/>
<feBlend mode="normal" in="SourceGraphic" in2="BackgroundImageFix" result="shape"/>
<feGaussianBlur stdDeviation="12.5" result="effect1_foregroundBlur_6940_43949"/>
</filter>
<linearGradient id="paint0_linear_6940_43949" x1="103.635" y1="-26.7338" x2="396.626" y2="97.3371" gradientUnits="userSpaceOnUse">
<stop stop-color="#5755FF"/>
<stop offset="1" stop-color="#FF8AA6"/>
</linearGradient>
<linearGradient id="paint1_linear_6940_43949" x1="-14.02" y1="-11.2022" x2="551.148" y2="333.196" gradientUnits="userSpaceOnUse">
<stop stop-color="#5755FF"/>
<stop offset="1" stop-color="#FF8AA6"/>
</linearGradient>
<linearGradient id="paint2_linear_6940_43949" x1="109.572" y1="-25.7299" x2="402.564" y2="98.341" gradientUnits="userSpaceOnUse">
<stop stop-color="#5755FF"/>
<stop offset="1" stop-color="#FF8AA6"/>
</linearGradient>
</defs>
</svg>
